<?xml version="1.0" encoding="UTF-8"?>
<svg version="1.1" xmlns="http://www.w3.org/2000/svg" width="1622" height="584">
<path d="M0 0 C1.16015625 0.56589844 2.3203125 1.13179687 3.515625 1.71484375 C30.88479663 15.76302967 51.93151311 37.46010787 66.6875 64.1875 C67.21476685 65.12299683 67.21476685 65.12299683 67.75268555 66.07739258 C69.02718314 68.47155454 70.02102618 70.36687845 69.9296875 73.1171875 C68.68406252 75.63983977 67.16193666 77.70914826 65.4375 79.9375 C65.04965332 80.44345703 64.66180664 80.94941406 64.26220703 81.47070312 C63.36369629 82.6424074 62.46244132 83.81201024 61.55908203 84.97998047 C58.47820855 88.97170411 55.43039348 92.98876407 52.375 97 C51.68801025 97.90008789 51.00102051 98.80017578 50.29321289 99.72753906 C45.61927612 105.85540886 40.98674796 112.01274439 36.375 118.1875 C31.02739242 125.34380568 25.59068171 132.42291648 20.08447266 139.45776367 C15.54988108 145.26133986 11.11440344 151.13418235 6.72973633 157.05175781 C4.91300073 159.49601243 3.15687286 161.84312714 1 164 C-0.8828125 164.23046875 -0.8828125 164.23046875 -3.125 164.1875 C-4.21167969 164.17783203 -4.21167969 164.17783203 -5.3203125 164.16796875 C-6.20460937 164.11253906 -7.08890625 164.05710938 -8 164 C-8.95024048 164.00942627 -8.95024048 164.00942627 -9.91967773 164.01904297 C-12.95695043 163.90590572 -15.16505044 163.81763963 -17.40136719 161.62768555 C-18.67402309 159.72159649 -19.75226918 157.7818377 -20.8125 155.75 C-30.00839838 139.67430074 -42.98133571 124.59301532 -61.0625 118.46875 C-65.69264804 117.34855289 -69.66118864 117.58805804 -74.25 119 C-78.7557091 122.27687935 -80.37051191 126.58696232 -81.75 131.875 C-81.8325 132.90625 -81.915 133.9375 -82 135 C-82.06316406 135.73992187 -82.12632812 136.47984375 -82.19140625 137.2421875 C-82.79364596 149.71437762 -76.21443522 158.6807763 -68.41796875 167.86328125 C-58.96212523 177.89365703 -46.687492 185.77295504 -35.75927734 194.08447266 C-19.58268315 206.39485205 -3.74015184 218.97328319 11 233 C11.66080566 233.62680664 12.32161133 234.25361328 13.00244141 234.89941406 C22.77715094 244.23518634 31.59676155 253.66777013 39 265 C39.3909082 265.59458008 39.78181641 266.18916016 40.18457031 266.80175781 C64.56644511 304.40493376 78.40747499 356.47307509 69.47631836 401.11791992 C63.14061643 429.02211673 49.24868724 453.96851104 30 475 C29.14019531 475.94230469 28.28039062 476.88460938 27.39453125 477.85546875 C10.71943228 495.31875556 -12.20355499 510.45546639 -36.9921875 511.203125 C-85.82259774 511.86022403 -132.79856248 497.25657874 -170 465 C-170.78246094 464.32839844 -171.56492187 463.65679687 -172.37109375 462.96484375 C-184.24418253 452.53446198 -195.29145053 441.438996 -204.70703125 428.73291016 C-205.98042593 427.02623428 -207.28309804 425.34613461 -208.59375 423.66796875 C-217.46521191 412.13998775 -224.71700625 399.56868821 -232 387 C-232.51336914 386.1244043 -233.02673828 385.24880859 -233.55566406 384.34667969 C-234.01424805 383.54907227 -234.47283203 382.75146484 -234.9453125 381.9296875 C-235.34508301 381.23858887 -235.74485352 380.54749023 -236.15673828 379.83544922 C-237 378 -237 378 -237 375 C-235.25024414 373.54882812 -235.25024414 373.54882812 -232.78515625 372.03125 C-231.88023437 371.46599609 -230.9753125 370.90074219 -230.04296875 370.31835938 C-229.05941406 369.71830078 -228.07585937 369.11824219 -227.0625 368.5 C-225.02175975 367.22977001 -222.98139847 365.95893098 -220.94140625 364.6875 C-219.9270752 364.05972656 -218.91274414 363.43195313 -217.86767578 362.78515625 C-214.04578188 360.40598988 -210.26982892 357.9604944 -206.5 355.5 C-200.02520656 351.29337663 -193.51776255 347.13969021 -187 343 C-181.13045105 339.27092627 -175.26241666 335.54012631 -169.42382812 331.76269531 C-168.06760429 330.88548094 -166.70955171 330.0110869 -165.34960938 329.13964844 C-161.45119619 326.63192993 -157.62013304 324.04965061 -153.8203125 321.39453125 C-152.93553223 320.78875244 -152.05075195 320.18297363 -151.13916016 319.55883789 C-149.4246334 318.38372885 -147.72280785 317.18979004 -146.03662109 315.97436523 C-142.06143094 313.27735161 -139.23553814 311.55624388 -134.34375 312.015625 C-132.88926986 312.31330977 -131.44039142 312.64027616 -130 313 C-128.14181641 313.29390625 -128.14181641 313.29390625 -126.24609375 313.59375 C-121.72451549 315.55255647 -120.36813535 318.28970937 -118.0625 322.5 C-117.20522542 323.9637031 -116.34322999 325.42465136 -115.4765625 326.8828125 C-115.05793945 327.59211914 -114.63931641 328.30142578 -114.20800781 329.03222656 C-109.25307492 337.10351983 -102.41302809 344.08283991 -96 351 C-95.44957031 351.61617188 -94.89914063 352.23234375 -94.33203125 352.8671875 C-88.02124178 359.62986066 -77.76420401 368.69936871 -68.1875 369.125 C-67.465625 369.08375 -66.74375 369.0425 -66 369 C-62.55556478 361.8240933 -61.91940149 354.8910933 -63 347 C-64.40886735 343.3921946 -66.40889959 340.85282773 -69 338 C-69.66902344 337.22527344 -70.33804688 336.45054687 -71.02734375 335.65234375 C-79.73915727 326.25549874 -90.65811083 319.49308041 -101.30859375 312.51171875 C-111.44320581 305.86241561 -121.00894711 299.13476214 -130 291 C-130.89976562 290.20851563 -131.79953125 289.41703125 -132.7265625 288.6015625 C-141.68281001 280.67352468 -149.57511954 272.38336312 -157 263 C-157.78246094 262.03449219 -158.56492187 261.06898438 -159.37109375 260.07421875 C-192.76009605 218.03078705 -209.90111489 165.4316033 -204.375 111.8125 C-200.6765468 81.5936906 -189.7463657 51.4077362 -170 28 C-169.25878906 27.11828125 -168.51757812 26.2365625 -167.75390625 25.328125 C-125.12249767 -23.61060428 -56.00159079 -27.57319704 0 0 Z " fill="#000000" transform="translate(241,48)"/>
<path d="M0 0 C5.21558188 4.94413896 9.48058532 10.86111807 10.9375 18 C10.55212748 25.51453233 8.47766744 31.76867666 5.80859375 38.765625 C5.38714081 39.89638458 4.96568787 41.02714417 4.53146362 42.19216919 C3.39125022 45.24784325 2.24247487 48.3001306 1.09030533 51.35131073 C-0.8460745 56.49119081 -2.75603548 61.64101267 -4.67131233 66.78878403 C-5.4000329 68.7464735 -6.1299538 70.70371257 -6.85997009 72.66091919 C-11.2796355 84.52229571 -15.53821245 96.4384174 -19.75 108.375 C-21.02626564 111.983455 -22.30387045 115.59143464 -23.58203125 119.19921875 C-23.88008163 120.04063919 -24.17813202 120.88205963 -24.48521423 121.74897766 C-27.26123324 129.57710592 -30.076207 137.39014509 -32.9375 145.1875 C-33.53630981 146.83661377 -33.53630981 146.83661377 -34.1472168 148.51904297 C-34.50855713 149.49631348 -34.86989746 150.47358398 -35.2421875 151.48046875 C-35.54882324 152.31473389 -35.85545898 153.14899902 -36.17138672 154.00854492 C-37.0625 156 -37.0625 156 -39.0625 158 C-41.48828125 158.8515625 -41.48828125 158.8515625 -44.375 159.625 C-45.31988281 159.88539063 -46.26476562 160.14578125 -47.23828125 160.4140625 C-51.20120077 161.23624497 -53.77582849 161.76190276 -57.3515625 159.64453125 C-58.12242187 159.03996094 -58.89328125 158.43539062 -59.6875 157.8125 C-71.31801005 149.29607622 -85.54497058 144.3204454 -100.0625 146 C-112.36556996 148.71692795 -122.7262676 156.95778023 -130.0625 167 C-132.95931573 171.56140388 -135.55819175 176.21314731 -138.0625 181 C-138.52527344 181.88300781 -138.98804688 182.76601562 -139.46484375 183.67578125 C-146.04976978 197.20328105 -149.89206487 212.16609083 -152.0625 227 C-152.1567627 227.64356445 -152.25102539 228.28712891 -152.34814453 228.95019531 C-156.25164629 259.046962 -152.88977528 291.32035444 -134.375 316.25 C-125.27126623 327.0169159 -113.12870796 334.21946735 -99.0625 336 C-79.88763717 337.08379659 -62.32273565 333.14758831 -47.0625 321 C-46.06061848 319.98101319 -45.06034971 318.96043531 -44.0625 317.9375 C-40.61606571 315.71167785 -39.98705895 315.83074146 -36.125 316.5625 C-34.42797651 317.00676143 -32.74088702 317.4898295 -31.0625 318 C-29.90534988 318.19013168 -28.74819977 318.38026337 -27.5559845 318.57615662 C-24.0625 320 -24.0625 320 -22.49980164 323.26942444 C-22.13773104 324.70216627 -21.80913809 326.14360595 -21.5065918 327.59008789 C-21.31392825 328.38415322 -21.12126471 329.17821856 -20.92276287 329.99634647 C-20.50226669 331.73773563 -20.09474752 333.4822962 -19.69848251 335.22935867 C-19.05247122 338.04369012 -18.35790045 340.84165128 -17.64736938 343.64035034 C-16.05011959 349.93824959 -14.50213004 356.24772869 -12.95703125 362.55859375 C-12.38618659 364.88309717 -11.81519478 367.20756446 -11.24406433 369.53199768 C-10.05647881 374.36813685 -8.87090971 379.20476464 -7.68676758 384.04174805 C-6.17457092 390.21790442 -4.65687725 396.39269495 -3.13763905 402.56712246 C-1.96081851 407.35281798 -0.78710516 412.13927149 0.38570595 416.925951 C0.9440494 419.2030078 1.50338726 421.47982102 2.0637722 423.75637627 C2.84672569 426.93894568 3.62542174 430.12252871 4.40307617 433.30639648 C4.6311496 434.22974792 4.85922302 435.15309937 5.09420776 436.10443115 C6.61709873 442.36543576 7.8477805 448.64963806 8.9375 455 C-32.25230179 490.11572963 -82.16247463 505.35631479 -135.99609375 501.7265625 C-169.63754059 498.69209773 -199.60302763 485.08261466 -224.0625 462 C-224.79984375 461.32710937 -225.5371875 460.65421875 -226.296875 459.9609375 C-261.01447721 427.09001626 -273.94515635 374.89552371 -280.25 329.25 C-280.4049292 328.1470459 -280.5598584 327.0440918 -280.71948242 325.90771484 C-283.69734302 302.96992092 -284.44372617 279.91861587 -284.375 256.8125 C-284.37317719 255.52872467 -284.37135437 254.24494934 -284.36947632 252.92227173 C-284.32230331 233.12051962 -283.81980906 213.63182714 -281.0625 194 C-280.79711426 192.10459473 -280.79711426 192.10459473 -280.52636719 190.17089844 C-271.94097031 130.99245468 -253.34928362 69.94284238 -212.015625 25.140625 C-210.43347392 23.40658742 -208.95303119 21.65300618 -207.5 19.8125 C-204.31820854 16.14120216 -200.77067388 13.12625678 -197.0625 10 C-196.19753906 9.23558594 -195.33257813 8.47117188 -194.44140625 7.68359375 C-145.95557652 -34.35500218 -51.14334466 -42.77291182 0 0 Z " fill="#000000" transform="translate(823.0625,57)"/>
<path d="M0 0 C1.30358963 -0.01577087 2.60717926 -0.03154175 3.95027161 -0.04779053 C7.50266019 -0.08857482 11.05267823 -0.07302288 14.60510445 -0.04437876 C18.33652883 -0.02146164 22.06776127 -0.04276061 25.79919434 -0.05685425 C32.06360012 -0.073191 38.32704847 -0.05175038 44.59130859 -0.00878906 C51.8158273 0.04018827 59.03805983 0.02431984 66.26252317 -0.02522671 C72.48464775 -0.06617771 78.70608733 -0.07178002 84.92830324 -0.04827869 C88.63611054 -0.0343055 92.34284608 -0.03221065 96.05058289 -0.06210709 C100.18742395 -0.09313847 104.32037653 -0.0500454 108.45703125 0 C109.67288406 -0.01821808 110.88873688 -0.03643616 112.14143372 -0.0552063 C117.86142192 0.07266059 122.09125554 0.69432084 126.54126549 4.46202278 C133.32964919 11.74200695 131.97122225 21.20424917 131.87136841 30.54785156 C131.88174213 32.65287522 131.89603856 34.75788258 131.91391361 36.86285591 C131.95148127 42.64039328 131.93291812 48.41659257 131.90503764 54.19413471 C131.88468146 60.42742791 131.91610201 66.66049037 131.94085693 72.89373779 C131.97857908 84.39644619 131.97528974 95.89855821 131.95065372 107.40126354 C131.92800614 118.02782896 131.92210684 128.65423814 131.93285751 139.28082275 C131.93354498 139.98593483 131.93423245 140.69104691 131.93494074 141.41752602 C131.93774283 144.27986623 131.94060843 147.14220637 131.94357862 150.00454641 C131.97110453 176.85098844 131.94615677 203.69715898 131.89770654 230.5435591 C131.85499644 254.39067573 131.85881811 278.23735981 131.90185547 302.08447266 C131.95005601 328.88204268 131.96915235 355.67937286 131.9413451 382.47698021 C131.93845868 385.33407969 131.93564311 388.19117923 131.93285751 391.04827881 C131.93214582 391.75176024 131.93143412 392.45524168 131.93070086 393.18004073 C131.92046716 403.79947531 131.93242927 414.41873642 131.95517349 425.03814697 C131.98090837 437.11406203 131.9736054 449.18935487 131.9256468 461.26525068 C131.90198072 467.42758383 131.89275185 473.58903886 131.92248917 479.75136566 C131.94929832 485.39218186 131.93459067 491.03130571 131.8866912 496.67196822 C131.87663343 498.71287861 131.88176333 500.75393182 131.90357329 502.79475045 C132.07270577 519.93506323 132.07270577 519.93506323 126.54126549 525.86707878 C121.08982128 530.48266778 115.33637427 530.43218017 108.45703125 530.32910156 C107.15344162 530.34487244 105.84985199 530.36064331 104.50675964 530.37689209 C100.95437106 530.41767638 97.40435302 530.40212444 93.8519268 530.37348032 C90.12050242 530.3505632 86.38926998 530.37186218 82.65783691 530.38595581 C76.39343113 530.40229256 70.12998278 530.38085194 63.86572266 530.33789062 C56.64120395 530.2889133 49.41897142 530.30478172 42.19450808 530.35432827 C35.9723835 530.39527927 29.75094392 530.40088158 23.52872801 530.37738025 C19.82092071 530.36340706 16.11418517 530.36131221 12.40644836 530.39120865 C8.2696073 530.42224003 4.13665472 530.37914696 0 530.32910156 C-1.21585281 530.34731964 -2.43170563 530.36553772 -3.68440247 530.38430786 C-9.40439067 530.25644097 -13.63422429 529.63478072 -18.08423424 525.86707878 C-24.87261794 518.58709461 -23.514191 509.1248524 -23.41433716 499.78125 C-23.42471088 497.67622634 -23.43900731 495.57121898 -23.45688236 493.46624565 C-23.49445002 487.68870828 -23.47588687 481.91250899 -23.44800639 476.13496685 C-23.42765021 469.90167365 -23.45907076 463.66861119 -23.48382568 457.43536377 C-23.52154783 445.93265538 -23.51825849 434.43054335 -23.49362247 422.92783803 C-23.47097489 412.3012726 -23.46507559 401.67486342 -23.47582626 391.04827881 C-23.47685746 389.99061069 -23.47685746 389.99061069 -23.47790949 388.91157554 C-23.48071158 386.04923533 -23.48357718 383.18689519 -23.48654737 380.32455515 C-23.51407328 353.47811312 -23.48912552 326.63194258 -23.44067529 299.78554246 C-23.39796519 275.93842584 -23.40178686 252.09174175 -23.44482422 228.24462891 C-23.49302476 201.44705889 -23.5121211 174.64972871 -23.48431385 147.85212135 C-23.48142743 144.99502187 -23.47861186 142.13792233 -23.47582626 139.28082275 C-23.47511457 138.57734132 -23.47440287 137.87385988 -23.47366961 137.14906083 C-23.46343591 126.52962625 -23.47539802 115.91036514 -23.49814224 105.29095459 C-23.52387712 93.21503954 -23.51657415 81.13974669 -23.46861555 69.06385088 C-23.44494947 62.90151773 -23.4357206 56.7400627 -23.46545792 50.5777359 C-23.49226707 44.9369197 -23.47755942 39.29779585 -23.42965995 33.65713334 C-23.41960218 31.61622296 -23.42473208 29.57516974 -23.44654204 27.53435111 C-23.61567452 10.39403833 -23.61567452 10.39403833 -18.08423424 4.46202278 C-12.63279003 -0.15356622 -6.87934302 -0.10307861 0 0 Z " fill="#000000" transform="translate(370.271484375,29.83544921875)"/>
<path d="M0 0 C10.09182907 -0.40820882 19.99599356 0.83891324 30 2 C32.16785471 13.1390304 34.29044911 24.27550711 36.0480957 35.48779297 C36.62781199 39.36124274 36.62781199 39.36124274 38 43 C40.31 28.81 42.62 14.62 45 0 C50.56875 -0.04125 56.1375 -0.0825 61.875 -0.125 C64.51024658 -0.15231201 64.51024658 -0.15231201 67.19873047 -0.18017578 C68.58821303 -0.18601593 69.97769901 -0.19111262 71.3671875 -0.1953125 C72.09107666 -0.20554443 72.81496582 -0.21577637 73.56079102 -0.22631836 C75.37542936 -0.22695396 77.18951973 -0.12277575 79 0 C81 2 81 2 81.25695801 5.27075195 C81.09229041 11.47391211 79.92175928 17.56268851 78.88867188 23.66796875 C78.66151977 25.03849777 78.4349371 26.40912127 78.20887756 27.77983093 C77.59689337 31.4806292 76.97700125 35.18006311 76.35563087 38.87929535 C75.70637021 42.75290756 75.06445962 46.6277374 74.42175293 50.50244141 C73.20507282 57.83060649 71.98183079 65.15766019 70.75620031 72.48433304 C69.36055024 80.82933925 67.97226108 89.1755647 66.5845747 97.52189827 C63.7312113 114.68263075 60.86865389 131.84181705 58 149 C52.74894558 149.02464928 47.49792455 149.04283568 42.24682617 149.05493164 C40.45905979 149.05997218 38.67129755 149.06680454 36.88354492 149.07543945 C34.31948832 149.0875173 31.75548603 149.09323094 29.19140625 149.09765625 C27.98515343 149.10539818 27.98515343 149.10539818 26.75453186 149.11329651 C24.83598285 149.11349215 22.91754632 149.06201983 21 149 C18.88762797 146.88762797 19.04608974 142.71902668 18.58984375 139.80859375 C18.41443054 138.7190741 18.41443054 138.7190741 18.23547363 137.60754395 C17.79836026 134.88490754 17.36836419 132.16113234 16.9375 129.4375 C15.968125 123.353125 14.99875 117.26875 14 111 C11.69 123.87 9.38 136.74 7 150 C-1.55338152 150 -9.77727446 149.84536651 -18.25 149.0625 C-19.79494141 148.93198242 -19.79494141 148.93198242 -21.37109375 148.79882812 C-28.86981622 148.13018378 -28.86981622 148.13018378 -30 147 C-30.34648884 145.2033574 -30.63463082 143.3954354 -30.89971924 141.58499146 C-31.07371246 140.4099707 -31.24770569 139.23494995 -31.42697144 138.02432251 C-31.70917038 136.07313004 -31.70917038 136.07313004 -31.99707031 134.08251953 C-32.19881192 132.70790047 -32.40087636 131.33332875 -32.60324097 129.95880127 C-33.15292223 126.21562459 -33.69680898 122.47162932 -34.23877048 118.72732782 C-34.57704321 116.3902863 -34.91609784 114.05335937 -35.25533295 111.71645737 C-36.31527066 104.41123331 -37.37115392 97.10543734 -38.42207837 89.79891121 C-39.63709687 81.35246588 -40.86599811 72.90819204 -42.10671163 64.46548378 C-43.06367431 57.94740585 -44.00781334 51.42755009 -44.94227672 44.90620887 C-45.50124526 41.00756509 -46.06579317 37.10991936 -46.64383698 33.21405411 C-47.1870932 29.55044426 -47.71447138 25.88490064 -48.22958755 22.21723175 C-48.5135009 20.22542679 -48.81411442 18.23602487 -49.11514282 16.24673462 C-49.27785675 15.06607422 -49.44057068 13.88541382 -49.60821533 12.66897583 C-49.75716877 11.64063189 -49.90612221 10.61228794 -50.05958939 9.55278206 C-50 7 -50 7 -48.6812706 5.17844963 C-46.31016974 3.51647866 -44.39532762 3.4691573 -41.51953125 3.26953125 C-40.43736328 3.18896484 -39.35519531 3.10839844 -38.24023438 3.02539062 C-37.10908203 2.95513672 -35.97792969 2.88488281 -34.8125 2.8125 C-33.70068359 2.73064453 -32.58886719 2.64878906 -31.44335938 2.56445312 C-25.59025068 2.15206714 -19.88567195 2 -14 2 C-11.525 20.81 -11.525 20.81 -9 40 C-7.45441107 35.3632332 -6.38956235 31.25071706 -5.52734375 26.484375 C-5.39936905 25.78733459 -5.27139435 25.09029419 -5.13954163 24.37213135 C-4.73476177 22.16547868 -4.33561951 19.95786327 -3.9375 17.75 C-3.53534792 15.52794749 -3.13190995 13.30616197 -2.7247467 11.08502197 C-2.35743597 9.08038631 -1.99488211 7.07488077 -1.63256836 5.06933594 C-1 2 -1 2 0 0 Z " fill="#000000" transform="translate(1266,51)"/>
<path d="M0 0 C1.35568336 0.00333092 1.35568336 0.00333092 2.73875427 0.00672913 C3.75973709 0.00680466 4.78071991 0.00688019 5.8326416 0.00695801 C6.94304306 0.01211929 8.05344452 0.01728058 9.19749451 0.02259827 C10.89336952 0.02472069 10.89336952 0.02472069 12.62350464 0.02688599 C16.25105891 0.03250433 19.8785525 0.04505994 23.50608826 0.05775452 C25.95856133 0.06276715 28.41103536 0.06733047 30.86351013 0.07142639 C36.89022371 0.08247971 42.91690165 0.09923568 48.94358826 0.12025452 C51.75176279 15.0303853 54.53461485 29.94513961 57.29692078 44.86383057 C58.84911684 53.2432948 60.41114745 61.62082305 61.98509216 69.99623108 C63.58785733 78.52606605 65.17657121 87.05840604 66.75135899 95.5934515 C67.62008846 100.29906696 68.49529733 105.00327765 69.38551331 109.70487976 C70.23215151 114.17761967 71.06164853 118.65320745 71.87840843 123.13149643 C72.18518916 124.79642894 72.49823004 126.46022124 72.81780434 128.12274551 C73.25586717 130.4068837 73.67149305 132.694025 74.08177185 134.98329163 C74.32172882 136.27093918 74.56168579 137.55858673 74.80891418 138.88525391 C74.94358826 142.12025452 74.94358826 142.12025452 73.74249268 144.53793335 C70.69460125 147.21886685 66.97174451 146.60583348 63.11936951 146.51087952 C62.2579686 146.50521973 61.39656769 146.49955994 60.50906372 146.49372864 C57.75750677 146.47133582 55.00725163 146.42113532 52.25608826 146.37025452 C50.39087269 146.35019322 48.52563671 146.3319418 46.66038513 146.31556702 C42.08761783 146.27146164 37.51582376 146.20241508 32.94358826 146.12025452 C31.80513644 142.81205091 30.73177516 139.5814586 30.09202576 136.13978577 C29.96311951 135.45078186 29.83421326 134.76177795 29.70140076 134.05189514 C29.51190857 133.00292053 29.51190857 133.00292053 29.31858826 131.93275452 C29.18452576 131.22183655 29.05046326 130.51091858 28.91233826 129.77845764 C28.37186304 126.84720686 27.94358826 124.10752339 27.94358826 121.12025452 C23.65358826 121.12025452 19.36358826 121.12025452 14.94358826 121.12025452 C13.62358826 130.69025452 12.30358826 140.26025452 10.94358826 150.12025452 C5.42580361 150.16610868 -0.09132291 150.20595074 -5.60914612 150.2301178 C-7.48709856 150.24018986 -9.36503528 150.25384813 -11.24293518 150.27113342 C-13.93861265 150.29532905 -16.6340832 150.30672534 -19.32984924 150.31556702 C-20.17260406 150.32588959 -21.01535889 150.33621216 -21.88365173 150.34684753 C-23.94262421 150.34724596 -26.00109109 150.24283039 -28.05641174 150.12025452 C-30.05641174 148.12025452 -30.05641174 148.12025452 -30.12031555 146.00094032 C-29.30508578 138.38885624 -28.02512853 130.91768263 -26.57203674 123.40296936 C-26.31691395 122.06316928 -26.06224782 120.72328218 -25.80799866 119.38331604 C-25.12282266 115.7797615 -24.43105439 112.17750282 -23.73779297 108.5754962 C-23.01152295 104.79700341 -22.29071783 101.01746769 -21.56910706 97.23808289 C-20.35895901 90.90463292 -19.14454672 84.57201217 -17.92750549 78.23988342 C-16.51944115 70.9136215 -15.11799066 63.58611779 -13.72005081 56.25791776 C-12.37336217 49.1991011 -11.02227625 42.14113326 -9.66908264 35.08356094 C-9.09353506 32.08144575 -8.51950368 29.07904648 -7.94667053 26.0764122 C-7.27391168 22.55115827 -6.59730861 19.02666391 -5.91766357 15.50273132 C-5.54908379 13.58672531 -5.18435598 11.66997958 -4.81971741 9.7532196 C-4.49167114 8.05851532 -4.49167114 8.05851532 -4.15699768 6.32957458 C-3.96748535 5.34187262 -3.77797302 4.35417065 -3.5827179 3.33653831 C-2.82967762 0.16547343 -2.82967762 0.16547343 0 0 Z M21.94358826 63.12025452 C20.51335648 67.792345 19.53978781 72.25129149 18.94358826 77.12025452 C20.92358826 77.12025452 22.90358826 77.12025452 24.94358826 77.12025452 C24.28358826 72.50025452 23.62358826 67.88025452 22.94358826 63.12025452 C22.61358826 63.12025452 22.28358826 63.12025452 21.94358826 63.12025452 Z " fill="#000000" transform="translate(1366.056411743164,50.87974548339844)"/>
<path d="M0 0 C18.26412322 13.4222919 24.96744488 34.88244151 28.34375 56.45703125 C31.25128895 81.26592335 32.56976786 109.08476687 17.42578125 130.42578125 C10.85275967 138.42966466 3.04178049 143.93060613 -7.296875 145.5234375 C-20.70728882 146.36764312 -32.58073223 145.59993523 -43.26953125 136.49609375 C-58.99453115 121.19527497 -63.23270775 98.41103824 -63.59765625 77.21875 C-63.62639812 74.3616594 -63.62395567 71.50560884 -63.609375 68.6484375 C-63.60755219 67.90364136 -63.60572937 67.15884521 -63.60385132 66.39147949 C-63.51186345 44.05191069 -60.27916509 22.21700099 -44.484375 5.1484375 C-32.94803378 -5.80321586 -13.64563892 -8.77219645 0 0 Z M-20.296875 44.5234375 C-26.51485551 51.15595005 -26.66319608 59.01094553 -26.609375 67.6484375 C-26.60518555 68.5669751 -26.60099609 69.4855127 -26.59667969 70.43188477 C-26.43908421 80.01419254 -26.08649973 91.11657416 -19.296875 98.5234375 C-17.19648169 99.91212266 -17.19648169 99.91212266 -15.296875 100.5234375 C-9.76639058 95.8897884 -7.71895647 90.80816019 -7.01147461 83.6262207 C-6.89470722 80.46139575 -6.8874546 77.31511426 -6.921875 74.1484375 C-6.91027344 73.08882812 -6.89867187 72.02921875 -6.88671875 70.9375 C-6.91722997 62.63844829 -7.5183774 54.17935539 -12.671875 47.3984375 C-15.33976006 45.49280532 -17.05641801 44.80119096 -20.296875 44.5234375 Z " fill="#000000" transform="translate(1006.296875,55.4765625)"/>
<path d="M0 0 C0.97450859 -0.00287018 0.97450859 -0.00287018 1.96870422 -0.00579834 C3.35324487 -0.00716202 4.73779822 -0.00345282 6.12231445 0.00488281 C8.18537466 0.01535641 10.24751806 0.00511406 12.31054688 -0.0078125 C28.73644991 -0.02607392 46.58608736 0.94683951 59.55078125 12.265625 C70.8644919 24.96829567 71.30223812 42.60644547 70.72558594 58.70703125 C70.0583952 68.47261636 66.30882612 76.5239179 60.84375 84.546875 C59.1457693 88.11725133 59.60469662 89.41734344 60.55078125 93.265625 C61.84882003 96.64768009 63.3406613 99.93354141 64.83984375 103.23046875 C65.70761608 105.18398511 66.57478526 107.13776949 67.44140625 109.09179688 C68.80835553 112.15391077 70.18044412 115.2134245 71.56347656 118.26831055 C72.89999689 121.2283268 74.21498141 124.19717882 75.52734375 127.16796875 C75.94496979 128.07546371 76.36259583 128.98295868 76.7928772 129.91795349 C79.12739864 135.24627011 80.03907918 138.58369227 78.55078125 144.265625 C73.42027915 145.81827695 68.32850667 146.96537081 63.05078125 147.890625 C62.33019531 148.0246875 61.60960937 148.15875 60.8671875 148.296875 C60.15433594 148.42320312 59.44148438 148.54953125 58.70703125 148.6796875 C58.07603516 148.7926416 57.44503906 148.9055957 56.79492188 149.02197266 C53.73048045 149.35468725 50.63323162 149.265625 47.55078125 149.265625 C43.26078125 141.345625 38.97078125 133.425625 34.55078125 125.265625 C34.22078125 132.855625 33.89078125 140.445625 33.55078125 148.265625 C29.61369269 148.6045596 25.67622544 148.93690772 21.73828125 149.265625 C20.08795898 149.40871094 20.08795898 149.40871094 18.40429688 149.5546875 C2.86328913 150.83831056 2.86328913 150.83831056 -2.44921875 150.265625 C-4.83031947 147.88452428 -4.72353152 147.31168313 -4.83430481 144.06147766 C-4.86873782 143.1810464 -4.90317083 142.30061514 -4.93864727 141.39350414 C-4.96638635 140.42487092 -4.99412542 139.4562377 -5.02270508 138.45825195 C-5.05915288 137.43747968 -5.09560068 136.4167074 -5.13315296 135.36500263 C-5.24956242 131.99880529 -5.35062005 128.63238828 -5.44921875 125.265625 C-5.48405239 124.14649593 -5.51888603 123.02736687 -5.55477524 121.8743248 C-5.82086819 113.31141902 -6.0517901 104.74775229 -6.2734375 96.18359375 C-6.30845844 94.83670854 -6.34348569 93.4898235 -6.37851906 92.14293861 C-6.52362317 86.55153848 -6.66760844 80.96011159 -6.80842876 75.3686018 C-7.00865212 67.41979963 -7.21600595 59.47125294 -7.4327876 51.52288455 C-7.5859883 45.88524292 -7.73141652 40.24743364 -7.87096721 34.60943776 C-7.95414141 31.25719258 -8.04072167 27.9051171 -8.13565636 24.5531826 C-8.2388828 20.8418561 -8.32942344 17.13043095 -8.41674805 13.41870117 C-8.45041977 12.31188492 -8.48409149 11.20506866 -8.51878357 10.06471252 C-8.53983154 9.06026093 -8.56087952 8.05580933 -8.58256531 7.0209198 C-8.60523311 6.14559192 -8.62790091 5.27026403 -8.65125561 4.36841106 C-8.15825369 -0.76271984 -4.1498288 0.00784838 0 0 Z M29.55078125 42.265625 C29.49664325 44.51535947 29.45792634 46.76546883 29.42578125 49.015625 C29.40257812 50.26859375 29.379375 51.5215625 29.35546875 52.8125 C29.53540823 55.99382992 29.86079543 57.63084396 31.55078125 60.265625 C33.90234376 58.05658143 35.44198299 56.35749321 35.76953125 53.0703125 C35.48402444 48.74488426 35.36412064 46.98735539 31.984375 43.98828125 C31.18128906 43.41980469 30.37820313 42.85132813 29.55078125 42.265625 Z " fill="#000000" transform="translate(1450.44921875,50.734375)"/>
<path d="M0 0 C1.30195312 -0.02900391 2.60390625 -0.05800781 3.9453125 -0.08789062 C15.55314381 -0.16334153 26.41237761 1.54943573 35.44140625 9.3359375 C44.99814586 19.1050491 46.82611009 29.57106801 46.73095703 42.765625 C46.51052233 51.36418735 45.65936288 59.8807058 41.125 67.375 C39.14590941 70.02521186 39.14590941 70.02521186 39.58984375 72.25 C40.48459132 74.60038169 41.66896589 76.24707274 43.1875 78.25 C50.52337183 89.07746467 52.43302047 102.81258989 51.00390625 115.64453125 C48.9633407 125.51782665 43.74588517 133.39294548 35.40625 139.0703125 C25.88512388 144.89284732 17.20741458 146.63616417 6.08984375 146.5078125 C5.14814835 146.5049826 4.20645294 146.50215271 3.23622131 146.49923706 C0.26151209 146.48814207 -2.71288351 146.46305802 -5.6875 146.4375 C-7.71809458 146.42745637 -9.74869392 146.41833296 -11.77929688 146.41015625 C-16.72798336 146.38823784 -21.67643871 146.353783 -26.625 146.3125 C-27.44243741 139.72955268 -27.84422056 133.23463155 -28.01391602 126.60571289 C-28.04332275 125.5732695 -28.07272949 124.54082611 -28.10302734 123.47709656 C-28.19875456 120.07987583 -28.28900475 116.68253577 -28.37890625 113.28515625 C-28.44451125 110.89407235 -28.51034681 108.50299476 -28.57640076 106.11192322 C-28.71409839 101.09624391 -28.84909983 96.08050122 -28.98217773 91.06469727 C-29.15091087 84.7124089 -29.32608898 78.3603188 -29.50335789 72.00826359 C-29.64067718 67.06187352 -29.77451855 62.11539367 -29.9073925 57.16888237 C-29.97055101 54.83187522 -30.03470642 52.49489474 -30.09997749 50.15794563 C-30.55215621 33.87251238 -30.70652616 17.60409272 -30.625 1.3125 C-20.40863315 0.55335088 -10.2489607 0.07656096 0 0 Z M5.375 36.3125 C5.705 41.9225 6.035 47.5325 6.375 53.3125 C8.025 52.9825 9.675 52.6525 11.375 52.3125 C13.8665904 48.5751144 13.83293285 46.73918417 13.375 42.3125 C10.92873949 38.29364344 10.03121589 37.47655397 5.375 36.3125 Z M6.375 92.3125 C6.375 98.9125 6.375 105.5125 6.375 112.3125 C11.96409628 111.76137897 11.96409628 111.76137897 14.75 109.875 C17.2939427 105.86339805 17.12729749 101.92607952 16.375 97.3125 C14.93485074 94.62111457 14.93485074 94.62111457 12.375 93.3125 C9.405 92.8175 9.405 92.8175 6.375 92.3125 Z " fill="#000000" transform="translate(1129.625,385.6875)"/>
<path d="M0 0 C1.38594529 0.00031696 2.77191535 0.01163319 4.15771484 0.03173828 C4.88735443 0.03456818 5.61699402 0.03739807 6.3687439 0.04031372 C8.70221262 0.05152076 11.03529937 0.07662568 13.36865234 0.10205078 C14.94937597 0.11207993 16.53010561 0.1212059 18.11083984 0.12939453 C21.98857894 0.14976081 25.86606177 0.18767709 29.74365234 0.22705078 C30.42122292 11.95206101 30.91968018 23.66223973 31.15864372 35.40431213 C31.21016961 37.90192094 31.26659978 40.39937843 31.32435608 42.89685059 C31.48792443 49.97991279 31.64767658 57.06302642 31.79321289 64.14648438 C31.8834013 68.51928247 31.98287641 72.89178445 32.08847237 77.26423645 C32.12665173 78.91958444 32.16131467 80.57501748 32.19236565 82.23051453 C32.2357479 84.52718457 32.2909291 86.82328689 32.34887695 89.11962891 C32.37694931 90.42355591 32.40502167 91.72748291 32.4339447 93.07092285 C32.50915305 96.38532507 32.50915305 96.38532507 34.74365234 99.22705078 C35.40365234 99.22705078 36.06365234 99.22705078 36.74365234 99.22705078 C38.58358052 93.70821715 39.07439378 88.78391456 39.15429688 82.98706055 C39.18399567 81.63953453 39.18399567 81.63953453 39.21429443 80.26478577 C39.27711588 77.31611417 39.32687544 74.36737829 39.37646484 71.41845703 C39.41763934 69.36578259 39.45963319 67.31312444 39.50241089 65.26048279 C39.61248704 59.87335445 39.71146541 54.48607773 39.80810547 49.09869385 C39.90880346 43.59512214 40.02003529 38.09176434 40.13037109 32.58837891 C40.34508689 21.80145253 40.54807483 11.01433994 40.74365234 0.22705078 C45.54913831 0.17768195 50.35447728 0.14134635 55.16015625 0.1171875 C56.79559907 0.10711824 58.43102383 0.09346197 60.06640625 0.07617188 C62.41459604 0.05196373 64.76254822 0.04057721 67.11083984 0.03173828 C67.84422577 0.02141571 68.57761169 0.01109314 69.33322144 0.00045776 C71.13827932 0.0000571 72.94273064 0.10492323 74.74365234 0.22705078 C76.74365234 2.22705078 76.74365234 2.22705078 76.9908905 5.0058136 C76.98946548 6.1929747 76.98804047 7.3801358 76.98657227 8.60327148 C76.98847061 9.25923813 76.99036896 9.91520477 76.99232483 10.59104919 C76.99605055 12.77842909 76.98527362 14.96548104 76.97412109 17.15283203 C76.9729264 18.6947577 76.97247674 20.23668412 76.97273254 21.77861023 C76.97116278 25.03466267 76.96285831 28.29060597 76.94946289 31.54663086 C76.93285023 35.62747599 76.92873969 39.70819828 76.92926311 43.78907299 C76.92884739 59.35872946 76.82096864 74.92192358 76.33740234 90.48486328 C76.28829964 92.22144951 76.28829964 92.22144951 76.23820496 93.99311829 C75.68141007 109.52897436 72.44593334 125.87252651 61.52099609 137.69580078 C52.57832628 145.40025477 44.30337232 147.05445812 32.74365234 146.22705078 C20.98911221 143.97648639 11.66811052 137.66244598 4.80615234 127.91455078 C-2.5219014 116.96306659 -4.3731985 106.24291376 -4.80712891 93.35986328 C-4.84896805 92.14211212 -4.89080719 90.92436096 -4.93391418 89.66970825 C-5.41436296 74.17672567 -5.44361231 58.68039771 -5.44165039 43.18115234 C-5.44154651 38.87967996 -5.45548271 34.57836441 -5.4724226 30.27692986 C-5.48348471 26.93133787 -5.48557182 23.58578557 -5.48504066 20.24017715 C-5.48621855 18.65090492 -5.49062957 17.06163159 -5.49837303 15.47237778 C-5.50810573 13.27964193 -5.50532812 11.08727222 -5.49926758 8.89453125 C-5.5006926 7.65105927 -5.50211761 6.40758728 -5.50358582 5.12643433 C-5.14155626 0.880882 -4.21120253 0.29362861 0 0 Z " fill="#000000" transform="translate(1017.25634765625,385.77294921875)"/>
<path d="M0 0 C1.27472168 -0.00630432 2.54944336 -0.01260864 3.86279297 -0.019104 C5.26009254 -0.01552433 6.65739087 -0.01142239 8.0546875 -0.00683594 C9.48193427 -0.00818265 10.90918059 -0.01012323 12.33642578 -0.01263428 C15.32914595 -0.01558528 18.32174681 -0.01128876 21.31445312 -0.00195312 C25.15485123 0.00944151 28.99496982 0.00288189 32.83535767 -0.00909805 C35.7829805 -0.01631737 38.73053681 -0.01402842 41.67816162 -0.00884247 C43.09438103 -0.00750616 44.51060644 -0.00915303 45.92681885 -0.01380157 C47.90433643 -0.01886768 49.88187512 -0.00978001 51.859375 0 C53.54909424 0.00238678 53.54909424 0.00238678 55.27294922 0.00482178 C57.9296875 0.25878906 57.9296875 0.25878906 59.9296875 2.25878906 C60.10522169 5.34403845 60.16091547 8.33843108 60.125 11.42285156 C60.1221701 12.33005951 60.11934021 13.23726746 60.11642456 14.17196655 C60.10520903 17.07604029 60.08010213 19.97980818 60.0546875 22.88378906 C60.04465947 24.84993045 60.03553331 26.81607666 60.02734375 28.78222656 C60.00526522 33.60786565 59.97072615 38.43327546 59.9296875 43.25878906 C56.73744616 43.59412937 53.54457787 43.92309495 50.3515625 44.25097656 C49.45421387 44.34531982 48.55686523 44.43966309 47.63232422 44.53686523 C41.38069836 45.17461115 35.21647985 45.51833554 28.9296875 45.25878906 C29.2596875 45.91878906 29.5896875 46.57878906 29.9296875 47.25878906 C30.00002519 49.13258511 30.0139897 51.00880008 29.9921875 52.88378906 C29.98316406 53.88667969 29.97414063 54.88957031 29.96484375 55.92285156 C29.95324219 56.69371094 29.94164062 57.46457031 29.9296875 58.25878906 C31.14084229 58.24307861 31.14084229 58.24307861 32.37646484 58.22705078 C36.01917432 58.18559075 39.66183425 58.15949468 43.3046875 58.13378906 C45.21121094 58.10865234 45.21121094 58.10865234 47.15625 58.08300781 C48.97382812 58.07333984 48.97382812 58.07333984 50.828125 58.06347656 C51.94880371 58.05300293 53.06948242 58.0425293 54.22412109 58.03173828 C56.9296875 58.25878906 56.9296875 58.25878906 58.9296875 60.25878906 C59.18847656 63.29980469 59.18847656 63.29980469 59.1953125 67.16503906 C59.19722595 67.84554321 59.1991394 68.52604736 59.20111084 69.22717285 C59.20247213 70.66626353 59.19877955 72.1053665 59.19042969 73.54443359 C59.17972878 75.75027993 59.19032622 77.95531188 59.203125 80.16113281 C59.20180339 81.55827003 59.19924098 82.95540674 59.1953125 84.35253906 C59.19305664 85.62806641 59.19080078 86.90359375 59.18847656 88.21777344 C58.9296875 91.25878906 58.9296875 91.25878906 56.9296875 93.25878906 C54.40771484 93.48583984 54.40771484 93.48583984 51.265625 93.45410156 C50.14414063 93.44765625 49.02265625 93.44121094 47.8671875 93.43457031 C46.10375 93.40943359 46.10375 93.40943359 44.3046875 93.38378906 C43.12132812 93.37476563 41.93796875 93.36574219 40.71875 93.35644531 C37.78886227 93.33281719 34.8593741 93.2998742 31.9296875 93.25878906 C31.9296875 96.55878906 31.9296875 99.85878906 31.9296875 103.25878906 C33.23172119 103.24307861 33.23172119 103.24307861 34.56005859 103.22705078 C37.77668278 103.1929919 40.99321517 103.16790139 44.20996094 103.14892578 C45.60289531 103.13886029 46.99580852 103.12520673 48.38867188 103.10791016 C50.3892311 103.08368686 52.38994365 103.07338093 54.390625 103.06347656 C56.19732666 103.04776611 56.19732666 103.04776611 58.04052734 103.03173828 C60.9296875 103.25878906 60.9296875 103.25878906 62.9296875 105.25878906 C63.12982903 108.32057679 63.20939822 111.28998199 63.1953125 114.35253906 C63.19722595 115.25500366 63.1991394 116.15746826 63.20111084 117.08728027 C63.20247309 118.99715453 63.19877388 120.90703802 63.19042969 122.81689453 C63.17973071 125.74695556 63.19032361 128.67640344 63.203125 131.60644531 C63.20180341 133.45931125 63.19924103 135.31217681 63.1953125 137.16503906 C63.19936096 138.04526733 63.20340942 138.92549561 63.20758057 139.83239746 C63.1596041 146.02887246 63.1596041 146.02887246 60.9296875 148.25878906 C58.15905762 148.51275635 58.15905762 148.51275635 54.58398438 148.51757812 C53.93341568 148.52108276 53.28284698 148.5245874 52.61256409 148.52819824 C50.45774733 148.53701536 48.30325772 148.53116669 46.1484375 148.52441406 C44.65393002 148.52576072 43.15942297 148.52770126 41.66491699 148.5302124 C38.53096348 148.53316363 35.39712388 148.52886614 32.26318359 148.51953125 C28.24118737 148.50813663 24.21945805 148.51469612 20.19747162 148.52667618 C17.11088033 148.53389486 14.02435257 148.53160683 10.9377594 148.52642059 C9.45455392 148.52508412 7.97134272 148.52673175 6.48814392 148.5313797 C4.41707019 148.53644518 2.34643184 148.5287349 0.27539062 148.51757812 C-0.90438354 148.51598694 -2.08415771 148.51439575 -3.29968262 148.51275635 C-6.0703125 148.25878906 -6.0703125 148.25878906 -8.0703125 146.25878906 C-8.32199478 143.76937866 -8.32199478 143.76937866 -8.32427979 140.56494141 C-8.32991943 139.35344421 -8.33555908 138.14194702 -8.34136963 136.89373779 C-8.33748068 135.54406679 -8.33338432 134.19439637 -8.32910156 132.84472656 C-8.33181043 131.42897359 -8.33537077 130.01322202 -8.33972168 128.59747314 C-8.34886043 124.74630547 -8.34529535 120.89524462 -8.33896351 117.04407501 C-8.33391118 113.01977748 -8.33859282 108.99548929 -8.34173584 104.97119141 C-8.34537773 98.21222282 -8.34057056 91.4532979 -8.33105469 84.69433594 C-8.3201697 76.87242573 -8.32369512 69.05061977 -8.3347075 61.22871208 C-8.34377404 54.52125593 -8.34506876 47.81383122 -8.33983016 41.10637093 C-8.33670696 37.09667374 -8.33631066 33.08702561 -8.34290314 29.07733154 C-8.3486668 25.30824639 -8.34469781 21.53929606 -8.33311462 17.77022552 C-8.33046277 16.38426691 -8.33124205 14.99829701 -8.33563995 13.61234283 C-8.34107591 11.72577816 -8.33306189 9.83918878 -8.32427979 7.95263672 C-8.32352573 6.89517242 -8.32277168 5.83770813 -8.32199478 4.74819946 C-7.78859706 -0.52768178 -4.46851826 0.00631192 0 0 Z " fill="#000000" transform="translate(1549.0703125,52.7412109375)"/>
<path d="M0 0 C0.77013428 0.04600342 1.54026855 0.09200684 2.33374023 0.1394043 C3.1890332 0.18645508 4.04432617 0.23350586 4.92553711 0.28198242 C6.27035156 0.37189453 6.27035156 0.37189453 7.64233398 0.46362305 C8.51180664 0.51196289 9.3812793 0.56030273 10.27709961 0.61010742 C14.45298723 0.85611422 18.59941247 1.19942255 22.75645447 1.66593933 C23.56626739 1.75661273 24.3760803 1.84728613 25.21043301 1.94070721 C25.82733533 2.01014443 26.44423765 2.07958166 27.07983398 2.15112305 C27.12650912 18.54493196 27.16180076 34.9387194 27.18345833 51.33257866 C27.1937806 58.94415378 27.20785903 66.55568767 27.23071289 74.16723633 C27.25061773 80.79975573 27.2635435 87.43224527 27.26801097 94.06479371 C27.2706233 97.5782256 27.27678299 101.09157208 27.2912941 104.60497665 C27.307344 108.52255633 27.30781554 112.44005166 27.30688477 116.35766602 C27.31407532 117.52866852 27.32126587 118.69967102 27.32867432 119.90615845 C27.32592499 120.96909119 27.32317566 122.03202393 27.32034302 123.12716675 C27.3221866 124.05449049 27.32403019 124.98181423 27.32592964 125.93723869 C27.07983398 128.15112305 27.07983398 128.15112305 25.07983398 130.15112305 C23.2355957 130.30224609 23.2355957 130.30224609 21.00952148 130.1628418 C19.78749023 130.09226562 19.78749023 130.09226562 18.54077148 130.02026367 C17.26073242 129.93035156 17.26073242 129.93035156 15.95483398 129.83862305 C14.70959961 129.76611328 14.70959961 129.76611328 13.43920898 129.69213867 C11.78085749 129.58946644 10.12362446 129.46671807 8.46826172 129.32373047 C6.11055916 129.11443734 6.11055916 129.11443734 3.86523438 129.20703125 C1.79467773 129.18237305 1.79467773 129.18237305 -1.92016602 128.15112305 C-4.2986663 125.37325919 -5.72484715 122.27592108 -7.23266602 118.96362305 C-7.64838867 118.11219727 -8.06411133 117.26077148 -8.49243164 116.38354492 C-9.29570716 114.73229652 -10.08679287 113.0750478 -10.86401367 111.41137695 C-12.16367258 108.62999873 -13.53475294 105.89056443 -14.92016602 103.15112305 C-14.90445557 104.31683838 -14.90445557 104.31683838 -14.88842773 105.50610352 C-14.84696319 109.01274405 -14.82087024 112.5193331 -14.79516602 116.02612305 C-14.7784082 117.24944336 -14.76165039 118.47276367 -14.74438477 119.7331543 C-14.7347168 121.48305664 -14.7347168 121.48305664 -14.72485352 123.26831055 C-14.70914307 124.88648682 -14.70914307 124.88648682 -14.69311523 126.53735352 C-14.92016602 129.15112305 -14.92016602 129.15112305 -16.92016602 131.15112305 C-19.77758789 131.40991211 -19.77758789 131.40991211 -23.38891602 131.41674805 C-24.6818457 131.41932617 -25.97477539 131.4219043 -27.30688477 131.42456055 C-27.98154785 131.42037109 -28.65621094 131.41618164 -29.35131836 131.41186523 C-31.41232759 131.40116375 -33.47246521 131.41176247 -35.53344727 131.42456055 C-36.82637695 131.42198242 -38.11930664 131.4194043 -39.45141602 131.41674805 C-40.6431543 131.41449219 -41.83489258 131.41223633 -43.06274414 131.40991211 C-45.92016602 131.15112305 -45.92016602 131.15112305 -47.92016602 129.15112305 C-48.1718483 126.98967743 -48.1718483 126.98967743 -48.1741333 124.2545166 C-48.17977295 123.21971664 -48.1854126 122.18491669 -48.19122314 121.11875916 C-48.18717468 119.97895096 -48.18312622 118.83914276 -48.17895508 117.66479492 C-48.18245972 116.46802628 -48.18596436 115.27125763 -48.1895752 114.03822327 C-48.196884 110.75103392 -48.19515036 107.46409538 -48.18881702 104.17691994 C-48.18376292 100.74119345 -48.18844683 97.30547787 -48.19158936 93.86975098 C-48.19523073 88.09942698 -48.19042544 82.32915413 -48.1809082 76.55883789 C-48.17002329 69.88208463 -48.17354875 63.20545351 -48.18456101 56.52870321 C-48.19362904 50.8021291 -48.19492155 45.07559182 -48.18968368 39.34901285 C-48.18656129 35.92617191 -48.18616194 32.50338843 -48.19275665 29.08055115 C-48.19959211 25.26613597 -48.19012526 21.45185824 -48.17895508 17.63745117 C-48.18300354 16.49764297 -48.187052 15.35783478 -48.19122314 14.18348694 C-48.1855835 13.14868698 -48.17994385 12.11388702 -48.1741333 11.04772949 C-48.17337925 10.14512642 -48.1726252 9.24252335 -48.1718483 8.31256866 C-47.92016602 6.15112305 -47.92016602 6.15112305 -45.92016602 4.15112305 C-43.03100586 3.92407227 -43.03100586 3.92407227 -39.38110352 3.95581055 C-37.6222583 3.96330322 -37.6222583 3.96330322 -35.82788086 3.97094727 C-34.33208496 3.98915527 -32.83628906 4.00736328 -31.29516602 4.02612305 C-26.55141602 4.06737305 -21.80766602 4.10862305 -16.92016602 4.15112305 C-12.96016602 14.71112305 -9.00016602 25.27112305 -4.92016602 36.15112305 C-4.6705393 25.05197843 -4.6705393 25.05197843 -4.44213867 13.95239258 C-4.40693934 12.56288716 -4.37101883 11.17339975 -4.33422852 9.78393555 C-4.32286865 9.06004639 -4.31150879 8.33615723 -4.29980469 7.59033203 C-4.08849469 0.32177727 -4.08849469 0.32177727 0 0 Z " fill="#000000" transform="translate(1038.920166015625,225.848876953125)"/>
<path d="M0 0 C0.77013428 0.04600342 1.54026855 0.09200684 2.33374023 0.1394043 C3.1890332 0.18645508 4.04432617 0.23350586 4.92553711 0.28198242 C6.27035156 0.37189453 6.27035156 0.37189453 7.64233398 0.46362305 C8.51180664 0.51196289 9.3812793 0.56030273 10.27709961 0.61010742 C14.45298723 0.85611422 18.59941247 1.19942255 22.75645447 1.66593933 C23.56626739 1.75661273 24.3760803 1.84728613 25.21043301 1.94070721 C25.82733533 2.01014443 26.44423765 2.07958166 27.07983398 2.15112305 C27.12650912 18.54493196 27.16180076 34.9387194 27.18345833 51.33257866 C27.1937806 58.94415378 27.20785903 66.55568767 27.23071289 74.16723633 C27.25061773 80.79975573 27.2635435 87.43224527 27.26801097 94.06479371 C27.2706233 97.5782256 27.27678299 101.09157208 27.2912941 104.60497665 C27.307344 108.52255633 27.30781554 112.44005166 27.30688477 116.35766602 C27.31407532 117.52866852 27.32126587 118.69967102 27.32867432 119.90615845 C27.32592499 120.96909119 27.32317566 122.03202393 27.32034302 123.12716675 C27.3221866 124.05449049 27.32403019 124.98181423 27.32592964 125.93723869 C27.07983398 128.15112305 27.07983398 128.15112305 25.07983398 130.15112305 C23.2355957 130.30224609 23.2355957 130.30224609 21.00952148 130.1628418 C19.78749023 130.09226562 19.78749023 130.09226562 18.54077148 130.02026367 C17.26073242 129.93035156 17.26073242 129.93035156 15.95483398 129.83862305 C14.70959961 129.76611328 14.70959961 129.76611328 13.43920898 129.69213867 C11.78085749 129.58946644 10.12362446 129.46671807 8.46826172 129.32373047 C6.11055916 129.11443734 6.11055916 129.11443734 3.86523438 129.20703125 C1.79467773 129.18237305 1.79467773 129.18237305 -1.92016602 128.15112305 C-4.2986663 125.37325919 -5.72484715 122.27592108 -7.23266602 118.96362305 C-7.64838867 118.11219727 -8.06411133 117.26077148 -8.49243164 116.38354492 C-9.29570716 114.73229652 -10.08679287 113.0750478 -10.86401367 111.41137695 C-12.16367258 108.62999873 -13.53475294 105.89056443 -14.92016602 103.15112305 C-14.90445557 104.31683838 -14.90445557 104.31683838 -14.88842773 105.50610352 C-14.84696319 109.01274405 -14.82087024 112.5193331 -14.79516602 116.02612305 C-14.7784082 117.24944336 -14.76165039 118.47276367 -14.74438477 119.7331543 C-14.7347168 121.48305664 -14.7347168 121.48305664 -14.72485352 123.26831055 C-14.70914307 124.88648682 -14.70914307 124.88648682 -14.69311523 126.53735352 C-14.92016602 129.15112305 -14.92016602 129.15112305 -16.92016602 131.15112305 C-19.77758789 131.40991211 -19.77758789 131.40991211 -23.38891602 131.41674805 C-24.6818457 131.41932617 -25.97477539 131.4219043 -27.30688477 131.42456055 C-27.98154785 131.42037109 -28.65621094 131.41618164 -29.35131836 131.41186523 C-31.41232759 131.40116375 -33.47246521 131.41176247 -35.53344727 131.42456055 C-36.82637695 131.42198242 -38.11930664 131.4194043 -39.45141602 131.41674805 C-40.6431543 131.41449219 -41.83489258 131.41223633 -43.06274414 131.40991211 C-45.92016602 131.15112305 -45.92016602 131.15112305 -47.92016602 129.15112305 C-48.1718483 126.98967743 -48.1718483 126.98967743 -48.1741333 124.2545166 C-48.17977295 123.21971664 -48.1854126 122.18491669 -48.19122314 121.11875916 C-48.18717468 119.97895096 -48.18312622 118.83914276 -48.17895508 117.66479492 C-48.18245972 116.46802628 -48.18596436 115.27125763 -48.1895752 114.03822327 C-48.196884 110.75103392 -48.19515036 107.46409538 -48.18881702 104.17691994 C-48.18376292 100.74119345 -48.18844683 97.30547787 -48.19158936 93.86975098 C-48.19523073 88.09942698 -48.19042544 82.32915413 -48.1809082 76.55883789 C-48.17002329 69.88208463 -48.17354875 63.20545351 -48.18456101 56.52870321 C-48.19362904 50.8021291 -48.19492155 45.07559182 -48.18968368 39.34901285 C-48.18656129 35.92617191 -48.18616194 32.50338843 -48.19275665 29.08055115 C-48.19959211 25.26613597 -48.19012526 21.45185824 -48.17895508 17.63745117 C-48.18300354 16.49764297 -48.187052 15.35783478 -48.19122314 14.18348694 C-48.1855835 13.14868698 -48.17994385 12.11388702 -48.1741333 11.04772949 C-48.17337925 10.14512642 -48.1726252 9.24252335 -48.1718483 8.31256866 C-47.92016602 6.15112305 -47.92016602 6.15112305 -45.92016602 4.15112305 C-43.03100586 3.92407227 -43.03100586 3.92407227 -39.38110352 3.95581055 C-37.6222583 3.96330322 -37.6222583 3.96330322 -35.82788086 3.97094727 C-34.33208496 3.98915527 -32.83628906 4.00736328 -31.29516602 4.02612305 C-26.55141602 4.06737305 -21.80766602 4.10862305 -16.92016602 4.15112305 C-12.96016602 14.71112305 -9.00016602 25.27112305 -4.92016602 36.15112305 C-4.6705393 25.05197843 -4.6705393 25.05197843 -4.44213867 13.95239258 C-4.40693934 12.56288716 -4.37101883 11.17339975 -4.33422852 9.78393555 C-4.32286865 9.06004639 -4.31150879 8.33615723 -4.29980469 7.59033203 C-4.08849469 0.32177727 -4.08849469 0.32177727 0 0 Z " fill="#000000" transform="translate(949.920166015625,225.848876953125)"/>
<path d="M0 0 C6.83301534 4.86864092 10.77596952 10.34978289 13.83984375 18.0234375 C11.25751425 21.42003524 8.67380291 24.8155794 6.08984375 28.2109375 C5.36023438 29.17064453 4.630625 30.13035156 3.87890625 31.11914062 C3.16992188 32.05048828 2.4609375 32.98183594 1.73046875 33.94140625 C1.08110352 34.79500732 0.43173828 35.6486084 -0.23730469 36.52807617 C-0.8718457 37.35154541 -1.50638672 38.17501465 -2.16015625 39.0234375 C-2.84883789 39.94060547 -3.53751953 40.85777344 -4.24707031 41.80273438 C-6.16015625 44.0234375 -6.16015625 44.0234375 -8.66015625 44.63671875 C-12.16410538 43.77715623 -13.095723 42.12029001 -15.16015625 39.2109375 C-17.82653887 35.48552792 -19.99396413 33.03517138 -24.16015625 31.0234375 C-26.41344037 31.22986949 -26.41344037 31.22986949 -28.16015625 32.0234375 C-29.03149813 34.73701285 -29.03149813 34.73701285 -29.16015625 38.0234375 C-26.59470995 42.58968641 -23.593099 45.63281075 -19.53515625 48.8984375 C-19.00954102 49.32697021 -18.48392578 49.75550293 -17.94238281 50.19702148 C-15.46539316 52.20948215 -12.95968127 54.17824554 -10.43359375 56.12890625 C3.60628796 67.01742133 11.41902602 79.19008021 13.83984375 97.0234375 C14.92164064 109.3439021 11.92980243 118.94633886 4.83984375 129.0234375 C2.33984375 131.8359375 2.33984375 131.8359375 -0.16015625 134.0234375 C-1.10890625 134.8896875 -2.05765625 135.7559375 -3.03515625 136.6484375 C-11.10310278 142.78007686 -18.18267441 142.7663317 -28.16015625 142.0234375 C-44.82432457 139.41626645 -58.13331337 129.18975303 -68.16015625 116.0234375 C-74.25258597 107.26888087 -74.25258597 107.26888087 -74.01660156 104.08911133 C-72.80454177 101.16572537 -71.10025294 100.32796171 -68.42578125 98.67578125 C-67.45898438 98.07056641 -66.4921875 97.46535156 -65.49609375 96.84179688 C-64.47773437 96.22111328 -63.459375 95.60042969 -62.41015625 94.9609375 C-61.40726563 94.33638672 -60.404375 93.71183594 -59.37109375 93.06835938 C-56.64227645 91.37280115 -53.90578157 89.69161604 -51.16015625 88.0234375 C-50.27956543 87.46253418 -49.39897461 86.90163086 -48.49169922 86.32373047 C-46.16015625 85.0234375 -46.16015625 85.0234375 -43.58984375 85.00390625 C-40.24987801 86.40540313 -39.22001281 88.30519745 -37.28515625 91.3359375 C-33.9857283 96.16589857 -31.49245496 98.69055682 -26.16015625 101.0234375 C-25.73585537 97.37444992 -25.70643047 95.61797473 -27.97265625 92.6484375 C-32.38620771 88.73929192 -37.37481805 85.45470222 -42.16015625 82.0234375 C-54.20715045 73.34960167 -62.52366731 58.54689864 -65.16015625 44.0234375 C-66.55188377 30.62012619 -65.09256128 17.21400835 -56.91015625 6.0859375 C-41.51725935 -12.05569099 -19.38976983 -11.82850823 0 0 Z " fill="#000000" transform="translate(925.16015625,58.9765625)"/>
<path d="M0 0 C14.85 0 29.7 0 45 0 C47.8964659 15.67086373 50.78449197 31.34320736 53.65714359 47.01844978 C54.99126644 54.29685439 56.32916938 61.57452587 57.67602539 68.85058594 C58.8500774 75.19316852 60.01698302 81.53701725 61.17536348 87.88248146 C61.78883827 91.2416145 62.4058463 94.60001017 63.03141975 97.95691299 C63.72836411 101.70676215 64.41265321 105.45871484 65.09399414 109.21142578 C65.30330566 110.32129349 65.51261719 111.43116119 65.72827148 112.57466125 C67.43447189 122.10556432 67.43447189 122.10556432 66 127 C65 128 65 128 61.76538086 128.11352539 C60.33185874 128.11336631 58.89833088 128.10767407 57.46484375 128.09765625 C56.33496788 128.09553383 56.33496788 128.09553383 55.18226624 128.09336853 C52.7673044 128.08775376 50.35243399 128.07519883 47.9375 128.0625 C46.30403779 128.0574869 44.67057414 128.05292366 43.03710938 128.04882812 C39.02470415 128.03777954 35.01236759 128.02050506 31 128 C29.83916237 123.97336292 28.70721515 119.98323667 27.875 115.875 C27.70742187 115.06804687 27.53984375 114.26109375 27.3671875 113.4296875 C27 111 27 111 27 106 C23.04 106 19.08 106 15 106 C14.87625 107.8975 14.7525 109.795 14.625 111.75 C14.19553502 118.33512967 13.10371624 124.37770255 12 131 C0.78 131 -10.44 131 -22 131 C-24.25000099 125.37499752 -24.25000099 125.37499752 -23.37406921 120.83874512 C-23.18473816 119.82098495 -22.9954071 118.80322479 -22.80033875 117.75462341 C-22.57965225 116.64901566 -22.35896576 115.5434079 -22.1315918 114.40429688 C-21.90915802 113.23141617 -21.68672424 112.05853546 -21.45755005 110.85011292 C-20.84575635 107.63939892 -20.22139508 104.4314407 -19.59135032 101.22426796 C-18.93432713 97.86398811 -18.29345337 94.50063146 -17.65083313 91.13757324 C-16.43090585 84.76658179 -15.19645474 78.3984951 -13.95678025 72.0313201 C-12.54999214 64.80200289 -11.15956233 57.56957113 -9.77044809 50.33684063 C-7.60958799 39.08776818 -5.43954085 27.84051215 -3.2565918 16.59570312 C-3.041978 15.49009537 -2.8273642 14.38448761 -2.60624695 13.24537659 C-1.74778391 8.82802915 -0.88252778 4.41263892 0 0 Z M21 54 C20.34 58.29 19.68 62.58 19 67 C20.65 67 22.3 67 24 67 C23.34 62.71 22.68 58.42 22 54 C21.67 54 21.34 54 21 54 Z " fill="#000000" transform="translate(1243,226)"/>
<path d="M0 0 C15.73918145 11.16974168 21.26536047 29.31950255 24.55078125 47.46484375 C27.84231875 69.44600172 28.14743046 93.41253619 15.87109375 112.7109375 C9.72064277 120.60811656 1.76929785 125.2563627 -8.12890625 126.7109375 C-17.59069404 127.68974313 -26.98493125 126.18985172 -34.96484375 120.79296875 C-47.22527148 110.39185513 -51.97350279 96.25253087 -54.12890625 80.7109375 C-54.29712891 79.52564453 -54.29712891 79.52564453 -54.46875 78.31640625 C-57.08122582 55.59144532 -56.41999611 29.1750002 -43.12890625 9.7109375 C-32.39604602 -3.47225497 -15.39255454 -9.32026238 0 0 Z M-19.87890625 41.0234375 C-22.63788328 46.95523812 -22.34930527 52.33152507 -22.37890625 58.7734375 C-22.39953125 59.86849609 -22.42015625 60.96355469 -22.44140625 62.09179688 C-22.48481718 71.20266589 -21.73645058 79.87554681 -15.12890625 86.7109375 C-13.18891063 86.49922332 -13.18891063 86.49922332 -11.12890625 85.7109375 C-9.81816721 84.01049119 -9.81816721 84.01049119 -8.94140625 81.8984375 C-8.61785156 81.21136719 -8.29429688 80.52429688 -7.9609375 79.81640625 C-4.10790142 70.06623514 -4.54052214 55.26730209 -8.21484375 45.56640625 C-9.56803784 42.81953791 -10.82215732 40.74630421 -13.12890625 38.7109375 C-16.7348393 37.83144164 -17.61804973 38.03587709 -19.87890625 41.0234375 Z " fill="#000000" transform="translate(1434.12890625,230.2890625)"/>
<path d="M0 0 C15.73918145 11.16974168 21.26536047 29.31950255 24.55078125 47.46484375 C27.84231875 69.44600172 28.14743046 93.41253619 15.87109375 112.7109375 C9.72064277 120.60811656 1.76929785 125.2563627 -8.12890625 126.7109375 C-17.59069404 127.68974313 -26.98493125 126.18985172 -34.96484375 120.79296875 C-47.22527148 110.39185513 -51.97350279 96.25253087 -54.12890625 80.7109375 C-54.29712891 79.52564453 -54.29712891 79.52564453 -54.46875 78.31640625 C-57.08122582 55.59144532 -56.41999611 29.1750002 -43.12890625 9.7109375 C-32.39604602 -3.47225497 -15.39255454 -9.32026238 0 0 Z M-19.87890625 41.0234375 C-22.63788328 46.95523812 -22.34930527 52.33152507 -22.37890625 58.7734375 C-22.39953125 59.86849609 -22.42015625 60.96355469 -22.44140625 62.09179688 C-22.48481718 71.20266589 -21.73645058 79.87554681 -15.12890625 86.7109375 C-13.18891063 86.49922332 -13.18891063 86.49922332 -11.12890625 85.7109375 C-9.81816721 84.01049119 -9.81816721 84.01049119 -8.94140625 81.8984375 C-8.61785156 81.21136719 -8.29429688 80.52429688 -7.9609375 79.81640625 C-4.10790142 70.06623514 -4.54052214 55.26730209 -8.21484375 45.56640625 C-9.56803784 42.81953791 -10.82215732 40.74630421 -13.12890625 38.7109375 C-16.7348393 37.83144164 -17.61804973 38.03587709 -19.87890625 41.0234375 Z " fill="#000000" transform="translate(1127.12890625,230.2890625)"/>
<path d="M0 0 C4.2033485 3.65027633 4.2033485 3.65027633 5.375 6.0625 C4.92514414 11.2030859 3.61350647 15.85034768 1.86328125 20.67578125 C1.48721992 21.71921944 1.48721992 21.71921944 1.1035614 22.78373718 C0.57378678 24.24148557 0.03993903 25.69775962 -0.49780273 27.15258789 C-1.31397393 29.37902074 -2.09725389 31.61544816 -2.88085938 33.85351562 C-3.40165515 35.27416885 -3.92437558 36.69411831 -4.44921875 38.11328125 C-4.67759933 38.78096024 -4.90597992 39.44863922 -5.14128113 40.1365509 C-6.4782152 43.62864056 -7.27133277 44.89199896 -10.69287109 46.54150391 C-13.97953646 47.1254959 -14.84462991 46.923506 -17.5625 45.125 C-20.6083262 43.41608225 -21.64679245 43.06213064 -25.3125 43 C-30.64783105 44.7113326 -33.18520989 47.97837752 -35.8125 52.75 C-40.33903546 62.48113494 -41.14913613 73.89180662 -37.625 84.0625 C-35.04133106 89.10309186 -32.10164964 92.20043912 -26.625 94.0625 C-21.30017056 94.75275567 -18.04547586 93.60692518 -13.51953125 91.03515625 C-10.69792022 89.58653533 -8.77068831 88.75638399 -5.63305664 89.59472656 C-2.59348113 91.81648073 -2.26182716 94.7958295 -1.484375 98.30078125 C-1.31246643 99.01856247 -1.14055786 99.73634369 -0.96343994 100.47587585 C-0.60293535 101.99470499 -0.25040351 103.51544541 0.09472656 105.0378418 C0.62152507 107.3596844 1.17170355 109.67495483 1.7265625 111.99023438 C2.07430581 113.46842389 2.42070417 114.94693059 2.765625 116.42578125 C2.92806702 117.11553543 3.09050903 117.80528961 3.25787354 118.51594543 C4.05879615 122.07225109 4.76511205 125.41674065 4.375 129.0625 C-6.93486814 139.40479387 -21.76586159 141.87603369 -36.45654297 141.24169922 C-45.36255095 140.50571522 -53.1719063 137.18722832 -59.625 131.0625 C-60.52992188 130.21751953 -60.52992188 130.21751953 -61.453125 129.35546875 C-75.80056103 114.54018154 -76.97958215 92.76359983 -77.0625 73.3125 C-77.06876404 72.62579224 -77.07502808 71.93908447 -77.08148193 71.23156738 C-77.15765103 58.02076835 -75.54361113 44.92151234 -71 32.4375 C-70.74984131 31.74221191 -70.49968262 31.04692383 -70.24194336 30.33056641 C-64.81861711 16.09007648 -55.58235042 3.51557739 -41.4921875 -2.91015625 C-29.55523596 -7.26006232 -10.96211767 -6.78096766 0 0 Z " fill="#000000" transform="translate(927.625,390.9375)"/>
<path d="M0 0 C0.84771973 -0.00418945 1.69543945 -0.00837891 2.56884766 -0.01269531 C3.47038574 -0.00334961 4.37192383 0.00599609 5.30078125 0.015625 C6.23325684 0.02239258 7.16573242 0.02916016 8.12646484 0.03613281 C39.57853559 0.49700827 39.57853559 0.49700827 50.96484375 11.48828125 C60.351848 21.60934033 61.10620962 35.47523871 60.890625 48.64453125 C60.49614065 58.20832346 57.38533919 66.16333324 51.4921875 73.65625 C49.43460668 79.76497884 54.67714232 87.94427316 57.22265625 93.58984375 C57.90171005 95.1279603 58.58007575 96.66638079 59.2578125 98.20507812 C60.31321594 100.59119692 61.37310121 102.97492176 62.44482422 105.35375977 C63.48877801 107.67659265 64.51332859 110.00720939 65.53515625 112.33984375 C65.85901306 113.04622482 66.18286987 113.7526059 66.51654053 114.48039246 C68.39953042 118.82814474 68.88147122 121.67805064 67.61328125 126.265625 C64.05212167 126.93958801 60.48915984 127.60350318 56.92578125 128.265625 C55.91837891 128.45640625 54.91097656 128.6471875 53.87304688 128.84375 C52.89658203 129.02421875 51.92011719 129.2046875 50.9140625 129.390625 C49.57081909 129.64199219 49.57081909 129.64199219 48.20043945 129.8984375 C45.61328125 130.265625 45.61328125 130.265625 40.61328125 130.265625 C36.98328125 123.665625 33.35328125 117.065625 29.61328125 110.265625 C29.28328125 116.535625 28.95328125 122.805625 28.61328125 129.265625 C24.57184052 129.6019113 20.53016657 129.93476271 16.48828125 130.265625 C14.77511719 130.40871094 14.77511719 130.40871094 13.02734375 130.5546875 C11.36445312 130.69003906 11.36445312 130.69003906 9.66796875 130.828125 C8.65202637 130.91191406 7.63608398 130.99570312 6.58935547 131.08203125 C3.56841494 131.2683928 0.63717143 131.43335011 -2.38671875 131.265625 C-8.45181221 125.20053154 -5.71021518 104.6220265 -5.88671875 96.03515625 C-5.92737729 94.19169843 -5.96840085 92.34824863 -6.00976562 90.50480652 C-6.11746429 85.67385715 -6.22143673 80.842836 -6.32421875 76.01177979 C-6.50736211 67.41530943 -6.6953018 58.81894615 -6.88671875 50.22265625 C-6.91715775 48.84814489 -6.91715775 48.84814489 -6.94821167 47.44586563 C-7.2845257 32.37934463 -7.7456164 17.32264031 -8.38671875 2.265625 C-5.39565469 0.69030829 -3.39784231 0.0102114 0 0 Z M24.61328125 37.265625 C24.52290026 42.41734123 24.76646992 47.18475704 25.61328125 52.265625 C26.60328125 51.935625 27.59328125 51.605625 28.61328125 51.265625 C30.20843178 48.07532394 30.13345545 44.72889009 29.61328125 41.265625 C27.84173473 38.73971652 27.84173473 38.73971652 25.61328125 37.265625 C25.28328125 37.265625 24.95328125 37.265625 24.61328125 37.265625 Z " fill="#000000" transform="translate(1473.38671875,225.734375)"/>
<path d="M0 0 C1.13464188 0.00607269 1.13464188 0.00607269 2.29220581 0.01226807 C3.08907806 0.00876343 3.88595032 0.00525879 4.70697021 0.00164795 C7.34875118 -0.00717566 9.99026573 -0.00131805 12.63204956 0.00543213 C14.46286063 0.00408566 16.29367136 0.00214528 18.1244812 -0.00036621 C21.96460366 -0.00331832 25.80463319 0.00098296 29.64474487 0.01031494 C34.5747365 0.02170953 39.50451039 0.01515052 44.43449402 0.00317001 C48.21592865 -0.00404624 51.99731139 -0.00176174 55.77874756 0.0034256 C57.5968834 0.00476275 59.4150239 0.00311211 61.2331543 -0.00153351 C63.77119482 -0.00659491 66.3088794 0.0011059 68.84689331 0.01226807 C69.60332123 0.0082196 70.35974915 0.00417114 71.13909912 0 C76.34102095 0.04252852 76.34102095 0.04252852 78.56954956 2.27105713 C78.76961258 5.26067816 78.84927879 8.15568063 78.83517456 11.14605713 C78.83708801 12.02632568 78.83900146 12.90659424 78.8409729 13.8135376 C78.84233508 15.67633347 78.83863638 17.53913882 78.83029175 19.4019165 C78.81959263 22.25955449 78.83018588 25.11656379 78.84298706 27.97418213 C78.84166547 29.78147519 78.83910309 31.58876786 78.83517456 33.39605713 C78.83922302 34.25441162 78.84327148 35.11276611 78.84744263 35.99713135 C78.79946701 42.04113968 78.79946701 42.04113968 76.56954956 44.27105713 C74.50656128 44.49810791 74.50656128 44.49810791 71.99923706 44.46636963 C71.10333862 44.45992432 70.20744019 44.453479 69.28439331 44.44683838 C68.34724487 44.43008057 67.41009644 44.41332275 66.44454956 44.39605713 C65.49966675 44.38703369 64.55478394 44.37801025 63.58126831 44.36871338 C61.24377664 44.34510235 58.90678833 44.31217229 56.56954956 44.27105713 C56.57399078 45.50689545 56.57843201 46.74273376 56.58300781 48.01602173 C56.62348471 59.64114249 56.65350062 71.26624903 56.6731739 82.89142418 C56.68362799 88.86858422 56.69781677 94.84568755 56.72042847 100.82281494 C56.74209898 106.58697698 56.75410593 112.35108434 56.75930405 118.11528397 C56.76301024 120.31859829 56.7702471 122.5219095 56.78100967 124.72520065 C56.79544763 127.80223905 56.79753074 130.87904912 56.79660034 133.95611572 C56.80379089 134.87464828 56.81098145 135.79318085 56.81838989 136.73954773 C56.81564056 137.57529831 56.81289124 138.41104889 56.81005859 139.27212524 C56.81190218 140.0003417 56.81374577 140.72855816 56.81564522 141.47884178 C56.56954956 143.27105713 56.56954956 143.27105713 54.56954956 145.27105713 C52.01204503 145.47062683 49.56516815 145.55092539 47.00704956 145.53668213 C46.25995728 145.53859558 45.51286499 145.54050903 44.74313354 145.54248047 C43.16280786 145.54384211 41.58247098 145.54014712 40.00216675 145.53179932 C37.57906034 145.52109913 35.15669533 145.53169492 32.73361206 145.54449463 C31.19975625 145.54317303 29.66590091 145.54061063 28.13204956 145.53668213 C27.40493774 145.54073059 26.67782593 145.54477905 25.92868042 145.5489502 C20.79947317 145.50098074 20.79947317 145.50098074 18.56954956 143.27105713 C18.38109829 140.19718044 18.31793205 137.21400863 18.34249878 134.13970947 C18.34220673 133.19332108 18.34191467 132.24693268 18.34161377 131.27186584 C18.34301076 128.13348322 18.35858933 124.99533594 18.37423706 121.85699463 C18.37796588 119.68509043 18.38081347 117.51318455 18.3828125 115.34127808 C18.39045929 109.61687601 18.41011675 103.89257496 18.43222046 98.16821289 C18.45265639 92.33011237 18.46180939 86.49199558 18.47189331 80.65386963 C18.49336167 69.19288053 18.52855232 57.73199303 18.56954956 46.27105713 C10.97954956 46.27105713 3.38954956 46.27105713 -4.43045044 46.27105713 C-5.5418386 34.8608054 -6.57891196 23.47030778 -7.18045044 12.02105713 C-7.23708862 11.07536865 -7.29372681 10.12968018 -7.3520813 9.15533447 C-7.39341187 8.2808667 -7.43474243 7.40639893 -7.47732544 6.50543213 C-7.51696411 5.73425049 -7.55660278 4.96306885 -7.59744263 4.16851807 C-7.19369293 -0.41911736 -3.75643699 0.0307109 0 0 Z " fill="#000000" transform="translate(1129.4304504394531,55.72894287109375)"/>
<path d="M0 0 C1.19463867 -0.00630432 2.38927734 -0.01260864 3.62011719 -0.019104 C4.91594727 -0.01505554 6.21177734 -0.01100708 7.546875 -0.00683594 C8.88444082 -0.00818272 10.22200617 -0.01012336 11.55957031 -0.01263428 C14.36397966 -0.01558494 17.16826169 -0.01128987 19.97265625 -0.00195312 C23.57092422 0.00944153 27.16889386 0.00288172 30.76715088 -0.00909805 C33.52948258 -0.0163183 36.29174333 -0.014028 39.05407715 -0.00884247 C41.02726433 -0.00685568 43.00045426 -0.01293935 44.97363281 -0.019104 C46.16827148 -0.01279968 47.36291016 -0.00649536 48.59375 0 C50.17687988 0.00238678 50.17687988 0.00238678 51.79199219 0.00482178 C54.296875 0.25878906 54.296875 0.25878906 56.296875 2.25878906 C56.49669525 5.03214334 56.576667 7.70348549 56.5625 10.47753906 C56.56441345 11.29121948 56.5663269 12.1048999 56.56829834 12.9432373 C56.56966027 14.66479806 56.56596328 16.38636909 56.55761719 18.10791016 C56.54691758 20.74828076 56.557512 23.38797096 56.5703125 26.02832031 C56.56899091 27.69889474 56.56642852 29.36946874 56.5625 31.04003906 C56.56654846 31.83277222 56.57059692 32.62550537 56.57476807 33.44226074 C56.52679527 39.02886879 56.52679527 39.02886879 54.296875 41.25878906 C51.68310547 41.48583984 51.68310547 41.48583984 48.4140625 41.45410156 C47.24746094 41.44765625 46.08085938 41.44121094 44.87890625 41.43457031 C43.04392578 41.40943359 43.04392578 41.40943359 41.171875 41.38378906 C39.94082031 41.37476563 38.70976563 41.36574219 37.44140625 41.35644531 C34.39314694 41.3328154 31.34498711 41.29694346 28.296875 41.25878906 C28.296875 45.21878906 28.296875 49.17878906 28.296875 53.25878906 C30.22273438 53.23558594 32.14859375 53.21238281 34.1328125 53.18847656 C36.64582947 53.1697227 39.15885062 53.1515221 41.671875 53.13378906 C43.57839844 53.10865234 43.57839844 53.10865234 45.5234375 53.08300781 C47.34101562 53.07333984 47.34101562 53.07333984 49.1953125 53.06347656 C50.31599121 53.05300293 51.43666992 53.0425293 52.59130859 53.03173828 C55.296875 53.25878906 55.296875 53.25878906 57.296875 55.25878906 C57.49652873 57.88819102 57.5767161 60.40999069 57.5625 63.04003906 C57.56441345 63.80932739 57.5663269 64.57861572 57.56829834 65.37121582 C57.56966008 66.99861986 57.56596439 68.62603477 57.55761719 70.25341797 C57.54691721 72.74894537 57.55751251 75.24375288 57.5703125 77.73925781 C57.5689909 79.31868649 57.5664285 80.89811472 57.5625 82.47753906 C57.56654846 83.22652466 57.57059692 83.97551025 57.57476807 84.74719238 C57.52679743 90.02886663 57.52679743 90.02886663 55.296875 92.25878906 C52.68310547 92.48583984 52.68310547 92.48583984 49.4140625 92.45410156 C47.66416016 92.44443359 47.66416016 92.44443359 45.87890625 92.43457031 C44.65558594 92.4178125 43.43226562 92.40105469 42.171875 92.38378906 C40.94082031 92.37476563 39.70976563 92.36574219 38.44140625 92.35644531 C35.39303685 92.33281454 32.34505118 92.2998696 29.296875 92.25878906 C29.30131622 92.9058078 29.30575745 93.55282654 29.31033325 94.2194519 C29.35447425 100.93485309 29.38470288 107.65021328 29.40673828 114.36572266 C29.41681511 116.87420322 29.43047679 119.38267198 29.44775391 121.89111328 C29.47192837 125.49026394 29.48334112 129.08925973 29.4921875 132.68847656 C29.50251007 133.81559052 29.51283264 134.94270447 29.52346802 136.10397339 C29.52369461 137.66536545 29.52369461 137.66536545 29.52392578 139.25830078 C29.528367 140.17763397 29.53280823 141.09696716 29.53738403 142.04415894 C29.296875 144.25878906 29.296875 144.25878906 27.296875 146.25878906 C24.81120957 146.45827463 22.4393675 146.53868649 19.953125 146.52441406 C19.22822876 146.52632751 18.50333252 146.52824097 17.75646973 146.5302124 C16.22322238 146.53157393 14.6899635 146.5278797 13.15673828 146.51953125 C10.80605241 146.50883084 8.45613077 146.51942715 6.10546875 146.53222656 C4.61718581 146.53090496 3.12890334 146.52834255 1.640625 146.52441406 C0.93538696 146.52846252 0.23014893 146.53251099 -0.49645996 146.53668213 C-5.47320014 146.48871392 -5.47320014 146.48871392 -7.703125 144.25878906 C-7.95480728 141.8006134 -7.95480728 141.8006134 -7.95709229 138.64086914 C-7.96273193 137.44620026 -7.96837158 136.25153137 -7.97418213 135.0206604 C-7.97013367 133.70318817 -7.96608521 132.38571594 -7.96191406 131.02832031 C-7.96462295 129.6322715 -7.96818331 128.23622411 -7.97253418 126.84017944 C-7.98167265 123.04272857 -7.97810797 119.24538603 -7.97177601 115.4479332 C-7.96672353 111.47969005 -7.97140536 107.51145638 -7.97454834 103.54321289 C-7.97819019 96.87840097 -7.97338317 90.21363333 -7.96386719 83.54882812 C-7.9529822 75.83598056 -7.95650763 68.12323872 -7.96752 60.41039371 C-7.97658666 53.79635492 -7.9778812 47.18234801 -7.97264266 40.56830502 C-7.96951953 36.61449894 -7.96912298 32.66074261 -7.97571564 28.7069397 C-7.98147948 24.99038349 -7.97750999 21.27396402 -7.96592712 17.55742264 C-7.9620072 15.53725626 -7.96797437 13.51707837 -7.97418213 11.49691772 C-7.96572266 9.7049144 -7.96572266 9.7049144 -7.95709229 7.87670898 C-7.95633823 6.83399338 -7.95558418 5.79127777 -7.95480728 4.71696472 C-7.43254631 -0.38394747 -4.34827325 0.0065556 0 0 Z " fill="#000000" transform="translate(1058.703125,54.7412109375)"/>
<path d="M0 0 C3.07607981 12.57941581 5.49800703 25.29700306 8 38 C8.176521 36.95545654 8.35304199 35.91091309 8.53491211 34.8347168 C9.19039336 30.95979627 9.84899659 27.0854118 10.50854492 23.21118164 C10.79357744 21.53424304 11.07776283 19.85716023 11.36108398 18.17993164 C11.76844273 15.76930957 12.17884403 13.35922237 12.58984375 10.94921875 C12.77896584 9.82407112 12.77896584 9.82407112 12.97190857 8.67619324 C13.48382124 5.68912346 14.03987378 2.88037866 15 0 C18.29187776 0.14128816 21.5834452 0.28889207 24.875 0.4375 C25.7928125 0.47681641 26.710625 0.51613281 27.65625 0.55664062 C30.4389657 0.68401846 33.21900695 0.83965182 36 1 C37.41394043 1.05824951 37.41394043 1.05824951 38.85644531 1.11767578 C39.75202148 1.17294434 40.64759766 1.22821289 41.5703125 1.28515625 C42.37484863 1.32648682 43.17938477 1.36781738 44.00830078 1.41040039 C46 2 46 2 47.15885639 3.72416019 C48.19041091 6.51518519 47.96876199 8.08304266 47.44999695 11.0030365 C47.2774942 12.01100784 47.10499146 13.01897919 46.92726135 14.05749512 C46.62428383 15.70727356 46.62428383 15.70727356 46.31518555 17.39038086 C46.11225891 18.55336197 45.90933228 19.71634308 45.70025635 20.91456604 C45.14137321 24.10229321 44.57090182 27.28768298 43.9952085 30.47240901 C43.39511432 33.80764662 42.8097878 37.14547349 42.22285461 40.48304749 C41.10829201 46.80769364 39.98029628 53.12986731 38.84754544 59.45127827 C37.56230521 66.6276545 36.29260181 73.80675169 35.02396333 80.98607814 C33.05025419 92.15256816 31.06820552 103.31755422 29.07299805 114.48022461 C28.77912956 116.12696671 28.77912956 116.12696671 28.47932434 117.80697632 C28.20788101 119.32316307 28.20788101 119.32316307 27.93095398 120.86997986 C27.77441691 121.74509688 27.61787985 122.62021391 27.45659924 123.52184963 C26.99643048 126.01937322 26.49804925 128.50975377 26 131 C15.11 131 4.22 131 -7 131 C-10.1555942 115.16404854 -13.30405233 99.32673537 -16.43944645 83.48677444 C-17.89546979 76.13217293 -19.35471271 68.77823764 -20.8215332 61.42578125 C-22.09989914 55.01791321 -23.37222713 48.60888118 -24.63729757 42.19837451 C-25.30744839 38.8036233 -25.98062204 35.40953483 -26.66102791 32.01682281 C-27.42019067 28.23081925 -28.16587148 24.44223032 -28.91040039 20.65332031 C-29.25241989 18.96370682 -29.25241989 18.96370682 -29.60134888 17.23995972 C-29.80191391 16.20793427 -30.00247894 15.17590881 -30.2091217 14.11260986 C-30.38702775 13.21662708 -30.5649338 12.3206443 -30.74823093 11.39751053 C-31.00808752 8.92298534 -30.88670696 7.31717814 -30 5 C-25.56605536 2.37181507 -20.02696819 2.08897519 -15 1.375 C-13.66582031 1.17390625 -13.66582031 1.17390625 -12.3046875 0.96875 C-8.15364581 0.36158271 -4.20337138 -0.06974621 0 0 Z " fill="#000000" transform="translate(1183,226)"/>
<path d="M0 0 C5.77724318 4.08988589 10.75663042 9.27190702 14.1875 15.46484375 C14.70659861 19.11628099 14.47105064 19.4784117 12.390625 22.30078125 C11.30822043 23.59037001 10.20429953 24.86213662 9.08203125 26.1171875 C7.99567775 27.38524888 6.91102925 28.654773 5.828125 29.92578125 C5.29558105 30.54179199 4.76303711 31.15780273 4.21435547 31.79248047 C1.84711109 34.63832791 -0.24779098 37.63788067 -2.35546875 40.6796875 C-6.95840379 39.78155383 -9.00624584 38.1644383 -11.85546875 34.6171875 C-14.28981974 31.61897792 -14.96058582 30.79456253 -18.79296875 29.6796875 C-19.63859375 29.6796875 -20.48421875 29.6796875 -21.35546875 29.6796875 C-22.48987825 32.28103734 -22.48987825 32.28103734 -22.35546875 35.6796875 C-19.22816745 41.20261961 -13.89467083 44.92498185 -8.91796875 48.6796875 C2.55714849 57.34310745 12.008734 67.48074184 14.42578125 82.28515625 C15.51387184 94.19586216 14.85064827 103.63440017 7.5546875 113.5078125 C2.48281559 119.43800119 -3.23860936 125.07612642 -11.4140625 125.8828125 C-26.1282191 126.17274662 -38.48185666 121.04514689 -49.09765625 111.01171875 C-52.22371668 107.78289854 -54.89491891 104.435667 -57.35546875 100.6796875 C-57.99162109 99.73222656 -57.99162109 99.73222656 -58.640625 98.765625 C-61.40389614 94.36312522 -61.40389614 94.36312522 -61.21240234 91.66064453 C-60.05941525 88.99530627 -58.67586583 88.23505937 -56.20703125 86.734375 C-55.3665625 86.21488281 -54.52609375 85.69539063 -53.66015625 85.16015625 C-52.77585937 84.63035156 -51.8915625 84.10054688 -50.98046875 83.5546875 C-50.10390625 83.01714844 -49.22734375 82.47960937 -48.32421875 81.92578125 C-46.6943865 80.92644985 -45.06138964 79.93224898 -43.42431641 78.94482422 C-41.70968495 77.89629694 -40.02773884 76.79453423 -38.35546875 75.6796875 C-35.54296875 75.5546875 -35.54296875 75.5546875 -32.35546875 76.6796875 C-30.64687297 78.57381262 -29.24256145 80.56601237 -27.8046875 82.671875 C-25.53900603 85.81085148 -22.79799538 87.95842418 -19.35546875 89.6796875 C-19.27320207 86.63582026 -19.37938658 84.60793402 -20.35546875 81.6796875 C-22.1528376 80.65518159 -22.1528376 80.65518159 -24.35546875 79.6796875 C-38.07327876 70.60548398 -49.69899309 59.34976156 -53.35546875 42.6796875 C-55.71977948 29.74551702 -53.41666386 17.77585125 -46.35546875 6.6796875 C-35.33035611 -7.93254313 -15.14199084 -8.48755042 0 0 Z " fill="#000000" transform="translate(1600.35546875,231.3203125)"/>
<path d="M0 0 C2 2 2 2 2.24609566 3.80783272 C2.24333028 4.91121892 2.24333028 4.91121892 2.24050903 6.03689575 C2.24325836 6.88106049 2.24600769 7.72522522 2.24884033 8.5949707 C2.24164978 9.522854 2.23445923 10.4507373 2.22705078 11.40673828 C2.22734283 12.38238739 2.22763489 13.3580365 2.22793579 14.36325073 C2.22653868 17.59902741 2.21095951 20.83457588 2.1953125 24.0703125 C2.19158373 26.30947748 2.18873612 28.54864409 2.18673706 30.78781128 C2.17908992 36.6897632 2.15943215 42.59161714 2.1373291 48.49353027 C2.11689392 54.51260045 2.10774033 60.53168641 2.09765625 66.55078125 C2.07618729 78.36723062 2.04203833 90.18360717 2 102 C3.30203369 101.98428955 3.30203369 101.98428955 4.63037109 101.96826172 C7.84699528 101.93420284 11.06352767 101.90911233 14.28027344 101.89013672 C15.67320781 101.88007123 17.06612102 101.86641766 18.45898438 101.84912109 C20.4595436 101.8248978 22.46025615 101.81459186 24.4609375 101.8046875 C26.26763916 101.78897705 26.26763916 101.78897705 28.11083984 101.77294922 C31 102 31 102 33 104 C33.20006302 106.98962103 33.27972923 109.8846235 33.265625 112.875 C33.26753845 113.75526855 33.2694519 114.63553711 33.27142334 115.54248047 C33.27278552 117.40527634 33.26908682 119.26808169 33.26074219 121.13085938 C33.25004307 123.98849736 33.26063632 126.84550666 33.2734375 129.703125 C33.27211591 131.51041806 33.26955353 133.31771073 33.265625 135.125 C33.26967346 135.98335449 33.27372192 136.84170898 33.27789307 137.72607422 C33.22991745 143.77008255 33.22991745 143.77008255 31 146 C28.45715332 146.25396729 28.45715332 146.25396729 25.20507812 146.25878906 C23.9904187 146.26509338 22.77575928 146.27139771 21.52429199 146.27789307 C19.54773621 146.27182037 19.54773621 146.27182037 17.53125 146.265625 C16.17126394 146.26697176 14.81127835 146.26891239 13.45129395 146.27142334 C10.59980693 146.27437409 7.74844513 146.27007864 4.89697266 146.26074219 C1.23817223 146.24934754 -2.4203348 146.25590729 -6.07912445 146.26788712 C-8.88777892 146.27510712 -11.69636359 146.27281717 -14.50502014 146.26763153 C-16.51144602 146.26564461 -18.5178746 146.27172863 -20.52429199 146.27789307 C-21.73895142 146.27158875 -22.95361084 146.26528442 -24.20507812 146.25878906 C-25.27826294 146.25719788 -26.35144775 146.25560669 -27.45715332 146.25396729 C-30 146 -30 146 -32 144 C-32.24609566 141.55185509 -32.24609566 141.55185509 -32.24050903 138.40658569 C-32.24325836 137.21744064 -32.24600769 136.02829559 -32.24884033 134.80311584 C-32.24164978 133.49185226 -32.23445923 132.18058868 -32.22705078 130.82958984 C-32.22648687 129.44015003 -32.22680284 128.05070961 -32.22793579 126.66127014 C-32.22851109 122.88253158 -32.21672832 119.10391925 -32.20278788 115.32521009 C-32.19030986 111.37872929 -32.18911234 107.43224578 -32.18673706 103.48574829 C-32.18051365 96.0094762 -32.16409124 88.5332624 -32.14403808 81.05701602 C-32.1217058 72.54686163 -32.11069238 64.0367045 -32.10064721 55.52652812 C-32.07972573 38.01765166 -32.04453309 20.50883199 -32 3 C-27.98000981 2.49306328 -23.95889046 1.9956961 -19.9375 1.5 C-18.80376953 1.35691406 -17.67003906 1.21382813 -16.50195312 1.06640625 C-4.76837098 -0.37035891 -4.76837098 -0.37035891 0 0 Z " fill="#000000" transform="translate(972,386)"/>
<path d="M0 0 C1.03437447 -0.00525696 1.03437447 -0.00525696 2.08964539 -0.01062012 C4.37431843 -0.01943923 6.65868306 -0.01358781 8.94335938 -0.00683594 C10.52754781 -0.00818254 12.11173584 -0.01012303 13.69592285 -0.01263428 C17.01818776 -0.01558578 20.34034522 -0.01128711 23.66259766 -0.00195312 C27.92672528 0.00944149 32.19060116 0.00288214 36.45471954 -0.00909805 C39.72660223 -0.01631599 42.99842498 -0.01402904 46.27030945 -0.00884247 C47.84282969 -0.00750578 49.41535532 -0.00915435 50.98786926 -0.01380157 C53.1834663 -0.01886579 55.37865241 -0.01115843 57.57421875 0 C59.45046936 0.00238678 59.45046936 0.00238678 61.36462402 0.00482178 C64.28710938 0.25878906 64.28710938 0.25878906 66.28710938 2.25878906 C66.48667907 4.81629359 66.56697764 7.26317047 66.55273438 9.82128906 C66.55464783 10.56838135 66.55656128 11.31547363 66.55853271 12.08520508 C66.55989435 13.66553077 66.55619937 15.24586765 66.54785156 16.82617188 C66.53715137 19.24927828 66.54774717 21.67164329 66.56054688 24.09472656 C66.55922528 25.62858237 66.55666287 27.16243772 66.55273438 28.69628906 C66.55678284 29.42340088 66.5608313 30.1505127 66.56500244 30.8996582 C66.51703298 36.02886546 66.51703298 36.02886546 64.28710938 38.25878906 C61.37775358 38.4039665 58.56716337 38.44509702 55.66210938 38.38378906 C54.8603125 38.37476563 54.05851562 38.36574219 53.23242188 38.35644531 C51.25052415 38.33285129 49.26877957 38.29697971 47.28710938 38.25878906 C47.2915506 39.34429047 47.29599182 40.42979187 47.30056763 41.54818726 C47.34104952 51.76055592 47.37106284 61.97290838 47.39073372 72.18533897 C47.40118655 77.43609324 47.415373 82.68678291 47.43798828 87.9375 C47.45966332 93.00140648 47.4716667 98.0652507 47.47686386 103.12919998 C47.48056924 105.06457119 47.48780456 106.99993885 47.49856949 108.93528366 C47.51301352 111.63873503 47.51509031 114.34192663 47.51416016 117.04541016 C47.52135071 117.85173386 47.52854126 118.65805756 47.53594971 119.48881531 C47.5152137 125.03068474 47.5152137 125.03068474 45.28710938 127.25878906 C42.4296875 127.51757812 42.4296875 127.51757812 38.81835938 127.52441406 C37.52542969 127.52699219 36.2325 127.52957031 34.90039062 127.53222656 C34.22572754 127.52803711 33.55106445 127.52384766 32.85595703 127.51953125 C30.7949478 127.50882976 28.73481018 127.51942849 26.67382812 127.53222656 C25.38089844 127.52964844 24.08796875 127.52707031 22.75585938 127.52441406 C21.56412109 127.5221582 20.37238281 127.51990234 19.14453125 127.51757812 C16.28710938 127.25878906 16.28710938 127.25878906 14.28710938 125.25878906 C14.09907985 122.54795248 14.03530765 119.94011633 14.06005859 117.22900391 C14.05976654 116.39965836 14.05947449 115.57031281 14.05917358 114.71583557 C14.06056999 111.96702714 14.0761457 109.2184878 14.09179688 106.46972656 C14.0955259 104.56686552 14.09837339 102.66400256 14.10037231 100.76113892 C14.10801746 95.74693523 14.12767349 90.73284697 14.14978027 85.71868896 C14.17021976 80.60446738 14.17936996 75.49022719 14.18945312 70.37597656 C14.21091858 60.33685513 14.24610787 50.29784974 14.28710938 40.25878906 C7.35710937 40.25878906 0.42710938 40.25878906 -6.71289062 40.25878906 C-7.05071186 35.8007552 -7.3832807 31.34243137 -7.71289062 26.88378906 C-7.80828125 25.63210937 -7.90367188 24.38042969 -8.00195312 23.09082031 C-9.22472271 6.4087496 -9.22472271 6.4087496 -8.71289062 2.25878906 C-5.87110997 -0.58299159 -3.98044296 0.00506352 0 0 Z " fill="#000000" transform="translate(1310.712890625,229.7412109375)"/>
<path d="M0 0 C0.72711182 0.00404846 1.45422363 0.00809692 2.20336914 0.01226807 C2.95046143 0.01035461 3.69755371 0.00844116 4.46728516 0.00646973 C6.04761085 0.00510809 7.62794772 0.00880307 9.20825195 0.01715088 C11.63135836 0.02785107 14.05372337 0.01725527 16.47680664 0.00445557 C18.01066245 0.00577717 19.54451779 0.00833957 21.07836914 0.01226807 C21.80548096 0.0082196 22.53259277 0.00417114 23.28173828 0 C28.41094553 0.04796946 28.41094553 0.04796946 30.64086914 2.27789307 C30.89255142 4.50180817 30.89255142 4.50180817 30.89483643 7.32635498 C30.90047607 8.39481155 30.90611572 9.46326813 30.91192627 10.56410217 C30.90787781 11.74131332 30.90382935 12.91852448 30.8996582 14.13140869 C30.90316284 15.36719162 30.90666748 16.60297455 30.91027832 17.87620544 C30.9175876 21.27082657 30.91585317 24.66520487 30.90952015 28.05981255 C30.90446643 31.60764779 30.90914985 35.15547246 30.91229248 38.70330811 C30.91593397 44.66194529 30.91112827 50.62053293 30.90161133 56.5791626 C30.8907264 63.47404083 30.89425185 70.3688008 30.90526414 77.26367617 C30.91433185 83.17708491 30.91562483 89.09045799 30.9103868 95.00387144 C30.90726424 98.53849445 30.90686555 102.07306181 30.91345978 105.60768127 C30.92029465 109.54662699 30.9108289 113.48543958 30.8996582 117.42437744 C30.90370667 118.60158859 30.90775513 119.77879974 30.91192627 120.99168396 C30.9034668 122.59436882 30.9034668 122.59436882 30.89483643 124.22943115 C30.89408237 125.1615316 30.89332832 126.09363205 30.89255142 127.05397797 C30.64086914 129.27789307 30.64086914 129.27789307 28.64086914 131.27789307 C26.08336461 131.47746277 23.63648773 131.55776133 21.07836914 131.54351807 C20.33127686 131.54543152 19.58418457 131.54734497 18.81445312 131.54931641 C17.23412744 131.55067804 15.65379056 131.54698306 14.07348633 131.53863525 C11.65037992 131.52793507 9.22801491 131.53853086 6.80493164 131.55133057 C5.27107583 131.55000897 3.73722049 131.54744657 2.20336914 131.54351807 C1.47625732 131.54756653 0.74914551 131.55161499 0 131.55578613 C-5.12920725 131.50781667 -5.12920725 131.50781667 -7.35913086 129.27789307 C-7.61081314 127.05397797 -7.61081314 127.05397797 -7.61309814 124.22943115 C-7.61873779 123.16097458 -7.62437744 122.09251801 -7.63018799 120.99168396 C-7.62613953 119.81447281 -7.62209106 118.63726166 -7.61791992 117.42437744 C-7.62142456 116.18859451 -7.6249292 114.95281158 -7.62854004 113.67958069 C-7.63584932 110.28495956 -7.63411489 106.89058127 -7.62778187 103.49597359 C-7.62272814 99.94813834 -7.62741157 96.40031367 -7.6305542 92.85247803 C-7.63419568 86.89384085 -7.62938999 80.9352532 -7.61987305 74.97662354 C-7.60898812 68.0817453 -7.61251357 61.18698533 -7.62352586 54.29210997 C-7.63259356 48.37870122 -7.63388655 42.46532814 -7.62864852 36.55191469 C-7.62552596 33.01729169 -7.62512727 29.48272432 -7.6317215 25.94810486 C-7.63855636 22.00915914 -7.62909062 18.07034656 -7.61791992 14.13140869 C-7.62196838 12.95419754 -7.62601685 11.77698639 -7.63018799 10.56410217 C-7.62454834 9.4956456 -7.61890869 8.42718903 -7.61309814 7.32635498 C-7.61234409 6.39425453 -7.61159004 5.46215408 -7.61081314 4.50180817 C-7.07267801 -0.25326174 -4.08865327 0.03823797 0 0 Z " fill="#000000" transform="translate(859.359130859375,225.72210693359375)"/>
</svg>
