<svg version="1.1" id="Layer_1" xmlns="http://www.w3.org/2000/svg" xmlns:xlink="http://www.w3.org/1999/xlink" x="0px" y="0px"
	 width="100%" viewBox="0 0 1563 1563" enable-background="new 0 0 1563 1563" xml:space="preserve">
<path fill="#000000" opacity="1.000000" stroke="none" 
	d="
M911.000000,1564.000000 
	C608.833374,1564.000000 307.166779,1563.991821 5.500194,1564.093140 
	C1.751377,1564.094360 0.906439,1563.249512 0.907145,1559.500122 
	C1.004750,1041.500244 1.004734,523.500305 0.907252,5.500459 
	C0.906547,1.752502 1.749434,0.906384 5.499575,0.907091 
	C523.499451,1.004749 1041.499390,1.004734 1559.499268,0.907303 
	C1563.246460,0.906599 1564.093628,1.748444 1564.093018,5.499295 
	C1563.995239,523.499207 1563.995361,1041.499146 1564.092651,1559.499023 
	C1564.093384,1563.245605 1563.252686,1564.095459 1559.500977,1564.093628 
	C1343.500610,1563.988525 1127.500366,1564.000000 911.000000,1564.000000 
z"/>
<path fill="#0049AD" opacity="1.000000" stroke="none" 
	d="
M617.980347,1057.017090 
	C594.488831,1057.010620 571.493835,1057.015015 548.498779,1056.990723 
	C542.139648,1056.984009 536.343567,1051.245239 535.950256,1044.934082 
	C535.026184,1030.107788 534.029785,1015.285645 532.962158,1000.469055 
	C532.566772,994.980835 530.012512,992.676941 522.646301,991.064697 
	C512.005432,988.735779 502.179688,984.267517 492.417023,979.661987 
	C488.123840,977.636780 484.004059,975.232422 479.868683,972.888733 
	C477.505829,971.549622 475.760040,971.846252 473.664276,973.718628 
	C462.737366,983.480835 451.512482,992.897217 440.693573,1002.796936 
	C434.099548,1008.830688 425.394836,1011.020874 416.741425,1002.257446 
	C400.470795,985.780090 383.993988,969.506409 367.636658,953.114502 
	C361.394318,946.859009 361.436279,936.892090 367.256714,930.238342 
	C377.342438,918.708374 387.195740,906.975403 397.223083,895.393860 
	C398.597595,893.806396 398.846069,892.971069 397.594696,890.852966 
	C389.007233,876.317383 381.788300,860.915405 377.793365,844.650818 
	C375.937256,837.094055 371.953339,837.123657 367.276123,837.106506 
	C352.849457,837.053528 338.700439,833.848633 324.274811,833.839478 
	C318.109039,833.835510 312.047699,826.841980 312.031616,820.452332 
	C311.968719,795.457825 311.944397,770.462952 312.023560,745.468628 
	C312.046631,738.182922 318.483154,732.450684 325.693726,731.923340 
	C337.458038,731.062927 349.175751,729.582581 360.925781,728.501526 
	C364.882477,728.137451 368.876862,728.151733 372.855621,728.071045 
	C375.023438,728.027039 376.491089,727.695801 377.077393,725.009583 
	C380.571594,709.000366 387.153595,694.149658 394.791321,679.759155 
	C398.800018,672.206238 399.008881,672.291687 393.109741,665.461121 
	C384.897430,655.952209 376.696960,646.432495 368.412170,636.986938 
	C361.041595,628.583740 360.527863,619.700012 368.369568,611.366577 
	C379.006744,600.062500 390.372131,589.444763 401.391541,578.498779 
	C405.863892,574.056335 410.161499,569.435730 414.688843,565.051270 
	C425.981354,554.115173 432.826263,555.884094 442.247894,564.292725 
	C452.965027,573.857605 464.342438,582.701538 474.469116,592.927002 
	C475.581146,594.049805 476.797791,594.338440 478.043640,593.526550 
	C486.993835,587.693787 496.908417,583.716797 506.673553,579.702576 
	C513.392212,576.940735 520.177246,573.645142 527.666382,572.966370 
	C531.226257,572.643799 532.727661,570.332153 532.940979,567.109802 
	C533.510376,558.510986 533.902771,549.900513 534.458923,541.300781 
	C534.928040,534.047852 535.317810,526.779541 536.134033,519.562378 
	C536.834290,513.371216 544.390503,507.106262 551.296143,507.068848 
	C575.623230,506.937042 599.951660,506.939209 624.278931,507.049164 
	C630.923401,507.079193 636.109985,511.674652 638.167236,519.073303 
	C639.088684,522.387207 639.777161,525.859192 639.903748,529.284058 
	C640.344482,541.205078 641.564453,553.111511 640.963562,565.055847 
	C640.728760,569.723022 642.934631,572.001709 647.288818,572.969788 
	C660.945129,576.006042 673.682434,581.508484 686.086853,587.822449 
	C689.356201,589.486572 689.624634,592.320557 687.493469,595.060913 
	C682.026245,602.091064 676.854797,609.353333 671.318542,616.327026 
	C666.149780,622.837891 661.023071,629.359924 656.317566,636.223328 
	C654.145081,639.392273 651.573364,640.022705 647.401917,638.346680 
	C634.281860,633.075134 620.924011,628.763000 606.512756,627.708313 
	C596.048889,626.942505 585.635681,626.714172 575.212341,627.015442 
	C557.507996,627.527161 540.822449,632.456177 524.670288,639.533264 
	C511.660614,645.233521 499.631042,652.487244 488.665833,661.473206 
	C477.951080,670.253845 468.750885,680.346497 460.515991,691.601196 
	C453.967896,700.550598 448.800781,710.123840 444.123840,719.971924 
	C441.355713,725.800659 439.366760,732.092407 437.468842,738.375732 
	C431.729767,757.376099 429.241272,776.847961 431.406281,796.380981 
	C432.555603,806.750549 434.135223,817.331909 437.409271,827.596619 
	C441.001129,838.858032 445.709839,849.450989 451.302551,859.738953 
	C457.714813,871.534485 465.915375,881.986145 475.088837,891.791992 
	C485.455444,902.873230 497.435760,911.987122 510.439392,919.383789 
	C517.902344,923.628906 525.940125,927.295593 534.239136,930.280762 
	C541.874939,933.027283 549.812744,934.233704 557.423828,936.760986 
	C563.950867,938.928223 570.771912,938.161255 577.425110,938.818909 
	C588.975159,939.960632 600.729614,939.379150 612.148438,937.706360 
	C620.116943,936.539001 628.370422,935.105591 635.870605,931.503601 
	C640.390137,929.332886 645.568481,929.030029 649.958435,926.311523 
	C651.493652,925.360901 653.128845,926.219482 654.770630,928.076660 
	C660.945923,935.061829 665.761353,943.027527 671.562378,950.263550 
	C676.715088,956.690796 681.654297,963.289490 686.826721,969.700439 
	C689.917786,973.531494 689.199402,975.718933 685.029236,978.138977 
	C676.679138,982.984802 667.498657,985.807129 658.752869,989.670532 
	C655.139648,991.266663 651.081299,991.195129 647.287659,992.488037 
	C642.712219,994.047424 640.892273,996.837585 641.024902,1001.243103 
	C641.379700,1013.029724 640.707886,1024.788818 639.731384,1036.508179 
	C639.392151,1040.580078 639.205383,1044.680298 637.395081,1048.827026 
	C634.703247,1054.993042 630.853882,1057.495483 624.473389,1057.030762 
	C622.484741,1056.885864 620.476196,1057.014038 617.980347,1057.017090 
z"/>
<path fill="#0048AC" opacity="1.000000" stroke="none" 
	d="
M737.192627,700.792114 
	C745.904358,706.115906 752.542603,713.003113 757.782776,721.300293 
	C759.736694,724.394104 759.487000,726.209717 755.833923,728.200623 
	C750.547791,731.081543 744.560120,732.470459 739.722717,736.455933 
	C737.892639,737.963867 734.740662,737.720520 732.682861,734.391602 
	C721.010925,715.509399 694.737000,715.127197 681.300781,730.307678 
	C670.129395,742.929321 671.491211,767.059021 684.806274,777.405029 
	C696.607727,786.574890 713.271118,787.894226 726.095947,777.518616 
	C728.888489,775.259399 731.297302,772.903931 732.811768,769.756104 
	C734.480957,766.286743 736.735168,766.628296 739.663269,767.942505 
	C745.447937,770.538818 750.387146,774.633545 756.674683,776.495483 
	C760.462891,777.617371 759.153748,781.527283 757.449768,784.084534 
	C747.881714,798.443665 734.658997,808.291077 717.768799,811.255737 
	C703.528687,813.755127 689.317749,812.499084 676.027405,804.778992 
	C663.516052,797.511414 654.684937,787.301697 649.456726,774.312866 
	C644.781128,762.696838 643.445984,750.354675 647.047058,737.911926 
	C649.248291,730.306213 652.034485,722.952698 656.863159,716.623718 
	C663.595947,707.798950 671.985657,700.891724 682.162476,696.335571 
	C693.992065,691.039429 706.396057,690.835327 718.840698,693.103455 
	C725.282104,694.277405 731.446899,696.705811 737.192627,700.792114 
z"/>
<path fill="#0048AC" opacity="1.000000" stroke="none" 
	d="
M551.261963,737.707214 
	C559.650513,741.428162 568.189575,743.674011 575.276855,749.479553 
	C586.642151,758.789490 591.169434,775.519348 585.878540,788.265259 
	C579.146912,804.481995 566.309753,811.248413 549.190491,812.123108 
	C532.805115,812.960327 519.471069,807.359131 508.194611,795.812134 
	C505.580933,793.135681 504.132355,789.791382 502.017303,786.844421 
	C500.793915,785.139893 501.405853,783.840637 503.140167,782.973511 
	C509.292633,779.897034 514.811768,775.804443 520.610718,772.159851 
	C523.381348,770.418640 525.569641,771.313049 526.971863,774.136536 
	C531.435608,783.124878 543.753235,788.242554 552.719666,784.554993 
	C556.197327,783.124817 558.928040,780.591614 558.914185,776.413757 
	C558.899658,772.017395 555.966125,769.421265 552.365173,767.873840 
	C544.992798,764.705688 537.530884,761.721130 529.995483,758.962341 
	C512.050232,752.392456 503.077209,738.011169 507.340668,717.987488 
	C510.585754,702.746582 527.233521,692.918762 540.408813,691.951599 
	C549.852417,691.258423 558.858521,692.829773 567.009094,697.213135 
	C571.473450,699.613953 575.792114,702.873047 579.268921,706.842529 
	C581.736328,709.659485 580.093201,712.038452 578.028870,714.009460 
	C574.094666,717.765991 569.736694,721.106140 566.033569,725.066956 
	C563.830811,727.423035 562.358093,727.414856 560.326416,725.337036 
	C555.409790,720.308899 549.652649,717.315125 542.388916,717.869690 
	C538.757507,718.146912 535.777710,719.591736 535.152344,723.331543 
	C534.539124,726.998657 535.133728,730.249084 539.236267,732.440979 
	C543.028503,734.467163 546.732727,736.472656 551.261963,737.707214 
z"/>
<path fill="#0048AC" opacity="1.000000" stroke="none" 
	d="
M601.641052,792.997437 
	C601.347595,774.870300 601.708374,757.243713 601.278259,739.606934 
	C600.946716,726.010742 602.084473,712.378662 601.140076,698.753540 
	C600.857910,694.682373 602.333679,692.424316 607.160767,692.816223 
	C613.115723,693.299683 619.137756,693.091980 625.126526,692.969604 
	C628.423950,692.902161 630.014404,693.959778 630.009033,697.510498 
	C629.953857,733.962585 629.969177,770.414856 630.020081,806.867004 
	C630.024353,809.933411 628.567566,810.996704 625.736450,810.974182 
	C619.244934,810.922607 612.748840,810.802612 606.262390,810.985596 
	C602.165222,811.101196 600.992615,808.967468 601.123535,805.437134 
	C601.271179,801.456055 601.466492,797.476868 601.641052,792.997437 
z"/>
<path fill="#0048AC" opacity="1.000000" stroke="none" 
	d="
M582.725220,850.245850 
	C584.392944,849.816956 586.541382,850.544556 585.221313,847.429016 
	C584.313782,845.287109 584.732971,842.616516 587.719421,842.054504 
	C590.829224,841.469360 594.501526,841.812317 594.669556,845.649109 
	C594.843079,849.612183 596.326294,849.890747 599.661926,850.205444 
	C602.847534,850.505920 607.029785,848.161743 608.991516,850.958740 
	C611.226929,854.145935 611.847534,858.504395 612.968384,862.411621 
	C613.322144,863.645020 612.971069,865.082581 614.466553,866.244263 
	C616.067444,862.834534 616.505676,859.235168 617.127319,855.694824 
	C617.630493,852.829102 618.313782,850.190491 621.986938,850.054504 
	C625.117188,849.938599 627.138367,850.190674 628.635132,854.122498 
	C630.468750,858.939026 630.983459,863.919006 632.525574,869.049011 
	C633.932922,864.902710 635.058899,861.028503 635.041992,856.833862 
	C635.031433,854.212952 635.526672,851.261230 638.177551,850.144714 
	C642.455139,848.343140 645.208008,850.619751 644.952393,855.419617 
	C644.866028,857.042480 644.390259,858.653137 644.012207,860.250427 
	C642.428162,866.942017 640.636841,873.590820 639.279907,880.327576 
	C638.522400,884.088501 636.457214,885.124817 632.971252,885.031006 
	C629.805969,884.945679 627.481079,885.015747 626.615784,880.698425 
	C625.731018,876.284180 625.656799,871.579529 623.408325,867.192505 
	C622.047485,872.066345 620.847534,876.771240 619.255737,881.379150 
	C618.411560,883.822937 617.962402,885.261108 615.209595,884.985046 
	C612.473206,884.710632 609.049500,886.228821 608.050415,881.832275 
	C606.742676,876.077637 604.639587,870.515686 603.974426,864.599976 
	C603.582397,861.113098 603.361938,857.980103 598.028625,858.354858 
	C595.400024,858.539612 594.989136,858.688843 595.056519,861.012939 
	C595.172302,865.005798 595.279907,869.016296 595.030701,872.996826 
	C594.830811,876.189758 596.203918,877.321655 599.101318,876.974976 
	C602.217224,876.601990 603.079712,877.952881 603.104858,880.943726 
	C603.129456,883.868164 602.571960,885.881714 599.298157,885.934448 
	C591.039795,886.067566 587.973572,885.468262 585.930237,877.549072 
	C587.109558,871.652954 586.650452,866.031860 586.334839,860.502380 
	C586.116394,856.675476 583.013062,857.658875 580.278564,858.754517 
	C576.149597,857.533081 574.748779,858.839172 574.936340,862.976562 
	C575.199768,868.788879 574.939087,874.623047 575.023193,880.446167 
	C575.063171,883.215515 574.895691,885.095886 571.145081,885.131348 
	C567.555725,885.165283 566.397217,883.610657 566.355774,880.559570 
	C566.272217,874.403564 566.165161,868.242432 566.330933,862.090515 
	C566.430786,858.382874 564.985352,857.294067 561.977905,858.283508 
	C561.977905,863.674927 562.238220,868.957031 561.903503,874.201111 
	C561.578735,879.290222 557.970337,882.485046 553.784363,884.487366 
	C548.948608,886.800476 543.842163,886.506226 539.159424,883.576477 
	C529.011353,877.227417 531.652222,857.517334 537.728394,851.897034 
	C541.825439,848.107422 554.384155,848.979919 557.885803,853.319397 
	C558.592346,854.194946 559.527954,854.885620 560.619019,855.905518 
	C561.590576,852.889160 561.778198,849.630981 565.955750,849.767151 
	C567.423401,849.815002 566.816467,847.877747 567.179016,846.862549 
	C569.356445,840.764954 576.278687,837.707397 582.171570,840.235229 
	C584.716064,841.326721 583.972107,843.556824 583.904114,845.419495 
	C583.825012,847.585144 581.928406,848.430298 580.402832,847.727478 
	C578.170410,846.698975 577.079285,847.680298 575.463501,849.338196 
	C577.470215,850.486145 579.432861,849.855713 581.663086,850.050903 
	C582.214417,850.189941 582.360229,850.300659 582.725220,850.245850 
z"/>
<path fill="#0048AC" opacity="1.000000" stroke="none" 
	d="
M501.740173,849.894287 
	C503.032410,844.307251 505.974487,841.500854 511.602753,841.958679 
	C514.084106,842.160461 516.595642,841.987000 519.093506,841.989929 
	C525.074585,841.996948 528.394409,844.655579 530.339050,850.565796 
	C531.113403,852.919006 531.317993,855.351257 528.661255,855.704956 
	C526.141846,856.040344 522.101807,857.921509 521.214661,853.452393 
	C520.652832,850.622131 518.967529,850.402832 516.955505,849.569336 
	C514.069641,848.373840 512.234863,849.636108 511.266327,851.837280 
	C510.074249,854.546509 512.096558,855.784790 514.349609,857.049500 
	C518.774292,859.533325 524.279175,859.067261 528.053040,863.811829 
	C533.318115,870.431274 532.149231,880.921082 523.984802,884.314331 
	C515.152771,887.985046 504.473328,886.768433 500.655090,875.914917 
	C499.704010,873.211426 499.321259,870.282532 502.686310,869.370544 
	C505.312866,868.658691 508.470886,867.858276 509.380920,872.633301 
	C510.145935,876.647339 514.143738,878.034058 518.570007,876.937622 
	C521.958862,876.098145 520.864075,873.410461 520.995728,871.248596 
	C521.098206,869.565063 520.331421,868.535156 518.637878,867.935303 
	C515.552246,866.842346 512.548401,865.517578 509.513977,864.280762 
	C502.503601,861.423706 500.370178,857.647400 501.740173,849.894287 
z"/>
<path fill="#0048AC" opacity="1.000000" stroke="none" 
	d="
M1127.031616,877.801636 
	C1127.029785,866.669128 1127.210083,856.006775 1126.949097,845.355164 
	C1126.845337,841.121521 1128.985107,841.047119 1132.173462,840.878906 
	C1135.861450,840.684326 1136.484985,842.529663 1136.054199,845.392273 
	C1135.421875,849.594788 1136.500488,850.897583 1141.164185,850.199097 
	C1145.825684,849.500916 1151.301514,848.596191 1154.087646,854.655029 
	C1154.752075,856.099792 1154.991699,857.461853 1154.993164,858.957458 
	C1154.998657,864.453125 1155.089600,869.950684 1154.977661,875.444031 
	C1154.848999,881.753296 1149.132935,887.081726 1143.124268,885.790405 
	C1139.235352,884.954590 1135.641602,884.195862 1131.604248,884.873657 
	C1126.127075,885.793091 1127.164917,881.466919 1127.031616,877.801636 
z"/>
<path fill="#0048AC" opacity="1.000000" stroke="none" 
	d="
M1070.451416,858.880493 
	C1068.547485,858.318481 1068.110718,857.158569 1068.035889,855.718384 
	C1067.838501,851.919495 1065.722046,850.160828 1062.012451,849.864868 
	C1058.184937,849.559509 1056.022339,851.456787 1055.132812,854.901550 
	C1053.460327,861.378418 1052.828979,867.817749 1056.057495,874.121277 
	C1057.712402,877.352661 1060.539062,877.363342 1063.315308,876.877075 
	C1065.885376,876.426941 1067.614014,874.700623 1068.041138,871.870239 
	C1068.249268,870.490967 1066.894897,868.076050 1069.732788,868.095825 
	C1072.271973,868.113464 1075.310303,866.812988 1077.235474,869.199707 
	C1078.641357,870.942749 1077.926514,872.969604 1076.747070,875.107056 
	C1070.022095,887.294739 1060.005737,889.546082 1049.432617,881.326782 
	C1047.142578,879.546570 1046.645142,877.143677 1046.235962,875.040710 
	C1044.523438,866.238281 1044.004028,857.225525 1047.207153,848.706238 
	C1048.426636,845.463135 1050.903809,841.917358 1055.549072,841.999146 
	C1057.878052,842.040161 1060.210571,842.061401 1062.537720,841.980835 
	C1073.209473,841.611267 1072.839600,843.192505 1077.449341,852.118591 
	C1079.767212,856.606689 1077.305542,858.936096 1070.451416,858.880493 
z"/>
<path fill="#0048AC" opacity="1.000000" stroke="none" 
	d="
M645.954529,859.111450 
	C649.507568,849.883423 659.964844,846.309753 668.088684,851.134094 
	C673.570435,854.389465 672.747742,860.245056 673.536987,865.199219 
	C674.315063,870.083496 673.949219,875.151672 674.059998,880.139771 
	C674.109314,882.360718 673.044922,884.809265 671.067139,884.693726 
	C665.321655,884.357849 659.679260,886.168640 654.109924,885.641724 
	C647.350159,885.002380 642.966248,877.657227 644.971436,871.365967 
	C646.230164,867.416626 648.474792,863.703125 645.954529,859.111450 
z"/>
<path fill="#0048AC" opacity="1.000000" stroke="none" 
	d="
M728.003784,867.582642 
	C728.341614,869.347656 727.031738,870.228516 727.318726,871.754883 
	C728.505493,878.066467 725.682007,882.763428 719.810242,884.908875 
	C709.917480,888.523499 702.111328,884.213745 700.371399,873.179749 
	C699.345581,866.674133 698.619324,859.688721 703.548767,853.843567 
	C706.898621,849.871460 714.313599,848.212463 720.603943,850.293701 
	C723.982727,851.411621 727.817322,857.252991 728.002869,861.666321 
	C728.079529,863.487915 728.013733,865.315613 728.003784,867.582642 
z"/>
<path fill="#0048AC" opacity="1.000000" stroke="none" 
	d="
M912.616516,882.621338 
	C911.932434,886.538696 908.960510,885.018738 907.096375,884.812683 
	C904.599731,884.536743 902.347168,884.600098 899.944153,885.286804 
	C894.126038,886.949463 889.578613,885.707825 886.457825,880.836914 
	C883.810242,876.704773 884.145264,871.906799 886.359924,867.579529 
	C887.367798,865.610168 889.187012,864.548279 886.215881,862.401978 
	C884.034485,860.826111 886.792725,854.062256 890.307556,851.401917 
	C894.566345,848.178284 905.596497,849.134460 909.624084,852.794922 
	C912.229004,855.162476 912.414734,858.223999 912.915955,861.666809 
	C911.203430,868.760498 912.026855,875.516785 912.616516,882.621338 
z"/>
<path fill="#0048AC" opacity="1.000000" stroke="none" 
	d="
M1113.264893,861.078186 
	C1113.261841,858.931763 1113.383179,857.254456 1113.204956,855.609619 
	C1112.799561,851.867126 1114.189453,850.121338 1118.138672,849.984741 
	C1122.312500,849.840271 1123.138306,851.839905 1123.059448,855.478577 
	C1122.879395,863.789062 1122.878906,872.108521 1123.054688,880.419067 
	C1123.129395,883.949036 1121.700806,885.487610 1118.358887,884.927063 
	C1114.411255,884.264954 1110.722778,884.951233 1106.857910,885.782104 
	C1100.885254,887.066162 1096.032715,882.368225 1094.864380,876.165649 
	C1093.492676,868.883179 1094.514526,861.615967 1093.967773,854.371033 
	C1093.709717,850.949829 1095.455200,850.156982 1098.394409,849.997437 
	C1101.328003,849.838196 1103.416748,850.532104 1103.505737,853.817383 
	C1103.658813,859.466125 1103.556274,865.122925 1103.765991,870.768738 
	C1103.872559,873.638733 1103.461914,877.072510 1108.121460,877.016541 
	C1112.699829,876.961609 1112.861328,873.753662 1113.014526,870.516663 
	C1113.155762,867.534729 1113.178345,864.547180 1113.264893,861.078186 
z"/>
<path fill="#0048AC" opacity="1.000000" stroke="none" 
	d="
M803.049683,872.066467 
	C803.054138,875.042542 802.988037,877.537598 803.074219,880.027405 
	C803.174866,882.936646 803.060181,885.202454 798.989075,885.076965 
	C795.320190,884.963867 793.983154,883.646301 794.053284,880.012817 
	C794.216858,871.544678 794.159180,863.071045 794.088135,854.600464 
	C794.066711,852.048096 795.092346,849.836914 797.563354,850.210693 
	C802.751343,850.995544 807.755920,849.679077 812.846863,849.705139 
	C821.003967,849.746887 823.528198,856.837830 823.957275,862.714844 
	C824.378357,868.482971 823.771912,874.321777 823.715881,880.130554 
	C823.681335,883.712830 822.011292,885.018860 818.449463,885.075684 
	C814.747498,885.134705 813.941833,883.438538 814.026855,880.200378 
	C814.170654,874.721252 813.834473,869.225525 814.089783,863.754944 
	C814.232178,860.701904 812.920227,859.134399 810.352356,858.196594 
	C807.493896,857.152649 805.991028,859.248657 804.585388,861.017639 
	C802.074036,864.178284 803.306641,868.017395 803.049683,872.066467 
z"/>
<path fill="#0048AC" opacity="1.000000" stroke="none" 
	d="
M941.789917,882.305359 
	C938.103210,879.165527 936.719116,875.469971 936.978760,871.058472 
	C937.346497,864.811218 935.481995,858.311035 941.049561,852.941040 
	C946.036255,848.131287 951.740906,849.290466 957.115967,850.283447 
	C961.341309,851.064026 964.253052,854.374268 965.112915,859.232605 
	C966.045166,864.500610 965.734863,869.576172 965.264832,874.873901 
	C964.373901,884.914185 949.589417,889.479004 941.789917,882.305359 
z"/>
<path fill="#0048AC" opacity="1.000000" stroke="none" 
	d="
M775.308472,849.264160 
	C777.295349,849.386597 778.904663,849.739197 780.530334,849.981934 
	C785.505737,850.724731 788.893005,854.200623 788.981934,859.158997 
	C789.113281,866.483032 788.897583,873.813721 789.054321,881.136719 
	C789.123291,884.359436 787.632690,885.068542 784.804993,885.021912 
	C781.987976,884.975403 779.880737,884.666992 779.962036,881.053528 
	C780.093079,875.228638 779.941895,869.397827 780.016846,863.570923 
	C780.049438,861.040649 779.624268,858.823059 776.850098,858.110168 
	C774.017822,857.382263 772.112671,858.731689 770.769592,861.225647 
	C769.730286,863.155518 768.903137,865.045410 768.971069,867.329529 
	C769.094788,871.488831 768.963867,875.655212 769.052307,879.816284 
	C769.113953,882.716003 769.022949,885.000549 765.006042,885.077087 
	C761.369507,885.146362 759.876770,883.963867 759.917908,880.320496 
	C760.010132,872.163147 759.803650,864.001587 759.948547,855.845886 
	C760.035583,850.941162 761.828003,849.242676 766.373108,850.245300 
	C769.488037,850.932495 772.131897,850.167419 775.308472,849.264160 
z"/>
<path fill="#0048AC" opacity="1.000000" stroke="none" 
	d="
M840.195312,849.424011 
	C846.335022,849.727234 852.178955,851.289124 853.799561,857.309937 
	C855.697388,864.360962 857.031799,871.967590 852.655151,878.863770 
	C848.415955,885.543335 843.540222,887.271606 834.707214,884.924011 
	C828.892944,883.378723 826.975708,878.269226 826.128662,873.086121 
	C825.520691,869.366150 825.612854,865.400879 826.145508,861.652039 
	C827.348083,853.187988 830.481689,850.650513 840.195312,849.424011 
z"/>
<path fill="#0048AC" opacity="1.000000" stroke="none" 
	d="
M1025.467529,861.646667 
	C1022.367737,862.147888 1019.794128,862.103394 1018.021484,859.450562 
	C1016.947266,857.842834 1015.211731,858.002686 1013.527405,857.958923 
	C1012.078857,857.921265 1010.675659,858.096558 1010.346985,859.623596 
	C1010.014954,861.166626 1011.799683,861.242065 1012.656311,861.726318 
	C1014.307129,862.659363 1015.642029,864.008789 1017.921143,864.105408 
	C1024.580933,864.387878 1027.564331,867.693970 1027.988892,874.487671 
	C1028.341187,880.128296 1025.427856,883.470215 1019.265503,885.061707 
	C1011.206482,887.143005 1003.689453,885.010376 1001.294312,877.720154 
	C1000.761230,876.097656 998.831909,873.952637 1001.825928,872.723145 
	C1004.476501,871.634766 1007.194519,870.993225 1009.297302,873.932251 
	C1010.075989,875.020691 1009.728516,877.264282 1011.931152,876.935974 
	C1014.304626,876.582275 1017.932373,878.711182 1018.702759,874.962280 
	C1019.440002,871.374817 1015.517517,871.947266 1013.492004,871.060913 
	C1011.251587,870.080505 1008.756653,869.697510 1006.466980,868.810547 
	C1000.624512,866.547424 1001.922607,861.356201 1002.094971,856.943237 
	C1002.234924,853.359985 1003.792175,850.594299 1008.129028,849.898865 
	C1012.198975,849.246155 1016.058777,848.634338 1020.099487,850.058228 
	C1025.423584,851.934326 1027.927856,856.671509 1025.467529,861.646667 
z"/>
<path fill="#0048AC" opacity="1.000000" stroke="none" 
	d="
M977.894714,880.646240 
	C978.290710,885.822266 974.850769,884.839783 972.170410,884.956543 
	C969.321228,885.080688 967.944336,883.939575 967.990540,880.845276 
	C968.122131,872.022766 968.051758,863.196960 968.032104,854.372498 
	C968.027771,852.429321 968.368042,849.863342 970.518921,850.309509 
	C976.957458,851.644897 983.262512,848.066956 989.752747,850.234619 
	C989.839905,849.218140 989.968384,848.237427 990.000977,847.253540 
	C990.161987,842.384827 992.875244,840.604736 997.689087,842.003540 
	C999.125732,842.421143 999.877075,843.898010 999.707031,844.447815 
	C998.507507,848.325195 999.697388,852.387207 998.646484,856.191345 
	C998.065857,858.293030 995.932434,860.059448 994.118225,858.868103 
	C990.765320,856.666443 987.746155,859.190552 984.496216,858.680603 
	C980.368347,858.032898 977.911621,860.786377 977.909058,865.197388 
	C977.906128,870.192261 977.903809,875.187073 977.894714,880.646240 
z"/>
<path fill="#0048AC" opacity="1.000000" stroke="none" 
	d="
M863.585022,882.178284 
	C862.280945,872.859009 857.917542,864.752563 856.307251,855.879150 
	C855.913147,853.707520 853.445312,851.322937 857.001831,850.302795 
	C859.918396,849.466187 863.585754,849.124512 864.652161,853.455750 
	C866.087036,859.283630 869.256348,864.575317 869.836975,870.839478 
	C871.135437,865.002869 873.585938,859.744324 875.090332,854.181946 
	C876.087830,850.493591 880.165527,848.396484 883.246948,850.316467 
	C886.113892,852.102722 884.720825,854.364685 883.701172,857.101868 
	C881.014343,864.314331 879.093628,871.820312 877.049927,879.259399 
	C876.436523,881.492188 876.546082,884.505188 873.732910,884.665466 
	C870.392883,884.855774 866.313477,886.843872 863.585022,882.178284 
z"/>
<path fill="#0049AD" opacity="1.000000" stroke="none" 
	d="
M935.921875,879.385925 
	C937.142883,884.957092 934.283936,886.317749 929.979675,885.959900 
	C920.940979,885.208252 919.405151,883.582825 918.989807,875.519653 
	C918.818909,872.201111 919.014587,868.865295 918.944458,865.539490 
	C918.881958,862.574890 920.059021,859.369873 915.474915,857.960510 
	C912.876587,857.161682 913.409790,850.721497 916.054443,850.276733 
	C918.955139,849.789001 919.076538,848.347717 918.949646,846.234802 
	C918.784363,843.482544 919.597717,841.928955 922.817627,841.841675 
	C926.341919,841.746033 927.247375,843.467590 926.941895,846.425720 
	C926.644653,849.304382 927.899841,850.374939 930.665100,850.052307 
	C934.853760,849.563538 935.225769,852.200012 935.069153,855.384094 
	C934.887268,859.081482 933.136597,859.339600 930.065918,858.216858 
	C928.054199,857.481445 927.011414,858.928650 926.999939,860.960876 
	C926.981140,864.287903 926.698914,867.649536 927.078979,870.932739 
	C927.477356,874.374573 928.320801,877.885315 933.283203,877.060974 
	C934.544434,876.851501 935.452515,877.715332 935.921875,879.385925 
z"/>
<path fill="#0048AC" opacity="1.000000" stroke="none" 
	d="
M687.980347,869.174194 
	C687.946533,873.300781 687.720642,876.965454 687.965332,880.598511 
	C688.187073,883.892395 686.935425,884.976074 683.728271,885.049133 
	C680.458069,885.123535 678.863708,884.374695 678.951538,880.681213 
	C679.156799,872.047485 679.158875,863.401978 678.946472,854.768433 
	C678.850403,850.861267 680.756592,849.335815 684.039185,850.175354 
	C687.328308,851.016602 689.998596,850.203674 693.014343,849.217529 
	C697.235840,847.837036 699.796875,850.305664 700.052307,854.760864 
	C700.227722,857.820801 699.091248,858.847046 696.184814,859.080688 
	C688.331360,859.712097 687.913696,860.304077 687.980347,869.174194 
z"/>
<path fill="#0049AD" opacity="1.000000" stroke="none" 
	d="
M1089.029907,865.999390 
	C1089.022949,871.644409 1088.873291,876.794800 1089.062866,881.932739 
	C1089.172119,884.892090 1087.625122,885.132812 1085.375122,885.001343 
	C1083.257690,884.877686 1080.971924,885.440247 1080.994995,881.965393 
	C1081.079712,869.186096 1081.017456,856.405823 1081.007080,843.625916 
	C1081.005615,841.853333 1081.433105,839.636780 1083.489258,840.453491 
	C1085.416870,841.219055 1089.290527,839.348145 1089.098633,844.091858 
	C1088.810425,851.217041 1089.027344,858.362610 1089.029907,865.999390 
z"/>
<path fill="#0048AC" opacity="1.000000" stroke="none" 
	d="
M754.630371,882.609497 
	C753.254883,886.645569 750.052063,884.874146 747.624817,884.730896 
	C745.453064,884.602722 745.346680,882.181763 745.328796,880.363770 
	C745.213013,868.583984 745.173706,856.803467 745.046753,845.023865 
	C745.032410,843.695679 745.345337,842.369751 746.594971,842.318848 
	C749.371338,842.205627 752.374573,840.735901 754.892578,843.619873 
	C754.533142,844.578613 754.004578,845.066895 754.015259,845.753540 
	C754.205627,857.914856 753.568909,870.084412 754.630371,882.609497 
z"/>
<path fill="#0049AD" opacity="1.000000" stroke="none" 
	d="
M754.960938,882.518311 
	C753.618286,881.758667 753.077576,880.220886 753.075623,878.506836 
	C753.064453,868.420593 753.067139,858.334351 753.095947,848.248230 
	C753.099731,846.903320 753.489075,845.634766 754.644531,844.310303 
	C754.939087,856.712402 754.986206,869.384827 754.960938,882.518311 
z"/>
<path fill="#0049AD" opacity="1.000000" stroke="none" 
	d="
M580.406616,859.037170 
	C580.542786,857.122803 580.615601,855.078003 581.926025,853.397644 
	C588.424133,860.209290 590.068359,868.939514 586.153381,876.891235 
	C585.892212,877.178711 585.828430,877.141113 585.847107,877.109131 
	C585.059937,871.963196 585.672363,866.815735 585.519836,861.685852 
	C585.467834,859.939514 585.635742,858.195496 582.659302,858.730103 
	C581.781799,858.975159 581.281799,859.023010 580.406616,859.037170 
z"/>
<path fill="#0049AD" opacity="1.000000" stroke="none" 
	d="
M912.940918,882.520630 
	C909.685974,876.271301 910.375671,869.476501 912.651001,862.359741 
	C912.922241,868.731384 912.968140,875.395386 912.940918,882.520630 
z"/>
<path fill="#0048AC" opacity="1.000000" stroke="none" 
	d="
M582.672241,859.006165 
	C585.673584,858.107666 585.830566,860.589355 585.893799,862.733459 
	C586.025513,867.196045 585.914062,871.665833 585.884155,876.604858 
	C583.816956,873.059631 585.343384,868.823242 585.063232,864.698975 
	C584.928162,862.710510 586.304871,860.021057 582.672241,859.006165 
z"/>
<path fill="#0049AD" opacity="1.000000" stroke="none" 
	d="
M582.725464,850.031677 
	C582.944397,850.080383 582.615356,850.114746 582.615356,850.114746 
	C582.615356,850.114746 582.284851,850.108398 582.176697,850.093750 
	C582.068542,850.079163 582.506592,849.982971 582.725464,850.031677 
z"/>
<path fill="#000000" opacity="1.000000" stroke="none" 
	d="
M542.143433,862.641357 
	C542.924805,859.327087 544.252563,857.672485 547.730835,857.948242 
	C551.179382,858.221741 552.012085,860.312927 552.650696,862.990234 
	C553.645508,867.161194 552.102234,871.148132 551.723206,875.209167 
	C551.555725,877.004211 549.623596,876.974792 548.087830,876.994690 
	C546.089294,877.020569 544.276001,877.176636 543.166443,874.766418 
	C541.401306,870.932129 541.824158,867.020020 542.143433,862.641357 
z"/>
<path fill="#000000" opacity="1.000000" stroke="none" 
	d="
M1136.989014,862.177124 
	C1137.967529,858.302979 1140.735596,857.716980 1143.599243,858.124695 
	C1146.708252,858.567383 1147.120728,861.167480 1147.075806,863.831543 
	C1147.028198,866.657654 1147.031494,869.484802 1147.018555,872.311462 
	C1147.006104,875.045349 1145.700073,876.590942 1142.948853,877.013977 
	C1140.073608,877.456055 1138.028076,875.990967 1137.222656,873.658447 
	C1135.995850,870.105103 1135.174683,866.319885 1136.989014,862.177124 
z"/>
<path fill="#000000" opacity="1.000000" stroke="none" 
	d="
M655.691772,870.862915 
	C658.354126,869.348999 660.427551,871.470337 662.678467,871.125549 
	C663.649231,870.976807 664.094543,871.945923 663.847290,872.820740 
	C663.275024,874.845154 661.779480,876.359680 659.892029,876.788147 
	C658.103638,877.194092 655.523926,877.935730 654.416382,876.117859 
	C653.615051,874.802673 652.999512,872.334900 655.691772,870.862915 
z"/>
<path fill="#000000" opacity="1.000000" stroke="none" 
	d="
M658.208923,857.998291 
	C659.927002,858.027283 661.106079,858.179504 662.389465,858.785950 
	C664.271362,859.675293 664.115173,861.061829 663.893799,862.468079 
	C663.512085,864.893433 662.001892,863.290649 660.902344,863.167969 
	C660.084290,863.076660 659.237183,863.155273 658.440430,862.984131 
	C656.982239,862.670898 654.688416,864.023743 654.225220,861.782166 
	C653.734375,859.406799 655.654907,858.379944 658.208923,857.998291 
z"/>
<path fill="#000000" opacity="1.000000" stroke="none" 
	d="
M713.232117,876.976257 
	C709.526367,876.795898 709.738037,874.181824 709.984924,872.200806 
	C710.278442,869.845093 712.487671,871.160950 713.838623,870.998474 
	C715.468628,870.802368 717.140320,870.951965 718.807434,870.951965 
	C718.469543,876.748352 718.469543,876.748352 713.232117,876.976257 
z"/>
<path fill="#000000" opacity="1.000000" stroke="none" 
	d="
M710.042236,860.040649 
	C711.579041,857.265747 713.913208,857.878479 715.947266,858.125610 
	C718.643433,858.453308 718.421448,861.150513 718.565796,862.814941 
	C718.730652,864.715454 716.153076,864.332214 715.541565,863.916199 
	C713.719910,862.677246 707.934021,867.553528 710.042236,860.040649 
z"/>
<path fill="#000000" opacity="1.000000" stroke="none" 
	d="
M895.677124,876.716187 
	C894.729065,874.823853 892.918579,873.136169 895.331970,871.369934 
	C897.788757,869.571838 900.224609,870.649597 902.616455,871.375427 
	C903.221497,871.559082 903.903381,872.346069 903.302063,873.346313 
	C902.504517,874.672791 902.541260,876.720947 900.466858,876.925232 
	C899.008545,877.068726 897.520264,876.907593 895.677124,876.716187 
z"/>
<path fill="#000000" opacity="1.000000" stroke="none" 
	d="
M902.003296,863.464844 
	C900.186523,863.165588 898.674500,862.871521 897.215637,863.039185 
	C893.933716,863.416443 894.792419,861.276611 895.204407,859.714844 
	C895.692444,857.864563 897.428589,858.106445 898.915588,858.026611 
	C900.900696,857.919983 902.482178,858.292236 903.141663,860.520020 
	C903.526672,861.820557 905.257263,863.288513 902.003296,863.464844 
z"/>
<path fill="#000000" opacity="1.000000" stroke="none" 
	d="
M956.912720,867.079346 
	C957.017639,874.787048 955.111145,877.437500 950.282043,877.025208 
	C948.308655,876.856689 947.418396,876.079346 946.898743,874.141541 
	C945.753052,869.869507 945.884094,865.711609 946.877808,861.437195 
	C947.293640,859.648071 947.590271,858.219543 949.719604,858.032776 
	C951.920654,857.839905 954.157715,857.615540 955.445557,859.953857 
	C956.582458,862.018433 957.204956,864.243835 956.912720,867.079346 
z"/>
<path fill="#000000" opacity="1.000000" stroke="none" 
	d="
M835.287476,873.485168 
	C833.178406,869.155823 833.698242,865.135010 835.098694,861.224426 
	C836.062012,858.534485 838.534546,857.851501 841.093018,858.079407 
	C843.594482,858.302124 844.636780,859.726074 845.365295,862.410156 
	C846.511169,866.631348 844.923035,870.458618 844.921814,874.463440 
	C844.921326,876.005127 843.886353,876.770264 842.367920,876.953430 
	C839.435608,877.306946 836.773682,877.119873 835.287476,873.485168 
z"/>
</svg>